<svg width="258" height="176" viewBox="0 0 258 176" fill="none" xmlns="http://www.w3.org/2000/svg">
<circle opacity="0.4" cx="70.5" cy="73" r="42.5" fill="#297AFF"/>
<path opacity="0.6" d="M118.214 65.879C118.327 67.2691 117.315 68.926 115.016 70.767C112.75 72.5825 109.376 74.4576 105.124 76.2765C96.6256 79.911 84.7251 83.2753 71.4407 85.4964C58.1564 87.7175 46.0364 88.3694 37.1849 87.6357C32.7553 87.2685 29.1725 86.5564 26.6768 85.5372C24.146 84.5036 22.8962 83.2248 22.7837 81.8348C22.6712 80.4447 23.6836 78.7877 25.9818 76.9467C28.2482 75.1313 31.6217 73.2561 35.8745 71.4372C44.3726 67.8027 56.2731 64.4384 69.5575 62.2173C82.8418 59.9962 94.9617 59.3443 103.813 60.0781C108.243 60.4453 111.826 61.1573 114.321 62.1766C116.852 63.2102 118.102 64.4889 118.214 65.879Z" stroke="#297AFF"/>
<path opacity="0.6" d="M120.165 65.5521C120.316 67.4236 119.213 69.5167 116.848 71.7332C114.494 73.9383 110.98 76.178 106.541 78.3161C97.6691 82.5893 85.214 86.4046 71.2828 88.7338C57.3515 91.0631 44.6198 91.4589 35.3027 90.2269C30.6409 89.6105 26.8626 88.5901 24.2201 87.2203C21.5639 85.8434 20.1563 84.17 20.0049 82.2986C19.8535 80.4272 20.9564 78.334 23.3219 76.1175C25.6752 73.9124 29.1898 71.6727 33.6287 69.5346C42.5005 65.2615 54.9555 61.4462 68.8868 59.1169C82.818 56.7876 95.5497 56.3918 104.867 57.6238C109.529 58.2403 113.307 59.2606 115.949 60.6305C118.606 62.0074 120.013 63.6807 120.165 65.5521Z" stroke="#297AFF"/>
<path opacity="0.6" d="M122.388 65.1726C122.577 67.5117 121.405 70.0402 118.959 72.64C116.517 75.236 112.859 77.8402 108.233 80.2966C98.9862 85.207 85.9755 89.4724 71.3969 91.9099C56.8183 94.3474 43.474 94.4885 33.6899 92.76C28.7955 91.8953 24.8196 90.5675 22.0279 88.8466C19.2322 87.1233 17.6881 85.0489 17.4988 82.7098C17.3096 80.3707 18.4814 77.8422 20.9273 75.2424C23.3698 72.6464 27.0276 70.0423 31.6534 67.5859C40.9004 62.6754 53.911 58.41 68.4896 55.9725C83.0682 53.535 96.4125 53.3939 106.197 55.1224C111.091 55.9871 115.067 57.3149 117.859 59.0358C120.654 60.7592 122.198 62.8336 122.388 65.1726Z" stroke="#297AFF"/>
<path opacity="0.6" d="M124.33 64.8469C124.564 67.7406 123.348 70.7886 120.843 73.8475C118.337 76.9076 114.571 79.9391 109.801 82.7642C100.265 88.4129 86.8104 93.1813 71.702 95.7074C56.5936 98.2335 42.7372 98.0313 32.5536 95.6798C27.4604 94.5037 23.311 92.7957 20.3833 90.644C17.4569 88.4932 15.7863 85.928 15.5522 83.0343C15.3181 80.1406 16.5346 77.0926 19.0396 74.0337C21.5456 70.9736 25.3116 67.9421 30.0811 65.117C39.6175 59.4683 53.0718 54.6999 68.1801 52.1738C83.2885 49.6477 97.1449 49.8499 107.329 52.2015C112.422 53.3776 116.571 55.0856 119.499 57.2372C122.425 59.388 124.096 61.9533 124.33 64.8469Z" stroke="#297AFF"/>
<g filter="url(#filter0_d_2698_8010)">
<circle cx="70.5" cy="73" r="35.5" fill="#297AFF"/>
</g>
<path d="M68.5007 55C76.5006 58.4998 65.5002 66 62.0006 65.4998C58.5011 64.9997 55.7007 57 68.5007 55Z" fill="#403BEB"/>
<path d="M35 73.0002C35 92.6063 50.8939 108.5 70.5 108.5C80.2511 108.5 89.084 104.569 95.5 98.2043C101.916 91.84 73.1724 98.1103 59 90C50.2315 84.9821 35 60 35 73.0002Z" fill="#403BEB"/>
<circle opacity="0.7" cx="11.5" cy="53" r="9.5" fill="#297AFF"/>
<circle opacity="0.7" cx="103" cy="33.5" r="3" fill="#297AFF"/>
<circle opacity="0.7" cx="93" cy="27.5" r="2" fill="#297AFF"/>
<circle opacity="0.7" cx="120" cy="98.5" r="5" fill="#297AFF"/>
<rect x="36" y="98.5" width="216" height="71" rx="12" fill="white"/>
<path d="M53.7358 113.936H57.4798C59.0878 113.936 60.2758 114.47 61.0438 115.538C61.8238 116.606 62.2138 118.166 62.2138 120.218C62.2138 122.27 61.8238 123.83 61.0438 124.898C60.2758 125.966 59.0878 126.5 57.4798 126.5H53.7358V113.936ZM57.3538 124.844C58.2778 124.844 58.9618 124.538 59.4058 123.926C59.8618 123.302 60.0898 122.414 60.0898 121.262V119.174C60.0898 118.022 59.8618 117.14 59.4058 116.528C58.9618 115.904 58.2778 115.592 57.3538 115.592H55.7338V124.844H57.3538ZM68.6507 126.716C67.9427 126.716 67.3067 126.602 66.7427 126.374C66.1787 126.146 65.7047 125.822 65.3207 125.402C64.9367 124.982 64.6427 124.478 64.4387 123.89C64.2347 123.29 64.1327 122.618 64.1327 121.874C64.1327 121.13 64.2347 120.458 64.4387 119.858C64.6547 119.258 64.9487 118.748 65.3207 118.328C65.7047 117.896 66.1667 117.566 66.7067 117.338C67.2467 117.11 67.8467 116.996 68.5067 116.996C69.1547 116.996 69.7427 117.11 70.2707 117.338C70.7987 117.554 71.2487 117.866 71.6207 118.274C71.9927 118.682 72.2747 119.168 72.4667 119.732C72.6707 120.296 72.7727 120.92 72.7727 121.604V122.342H66.1127V122.648C66.1127 123.38 66.3407 123.98 66.7967 124.448C67.2527 124.904 67.8827 125.132 68.6867 125.132C69.2867 125.132 69.7967 125.006 70.2167 124.754C70.6487 124.49 70.9967 124.142 71.2607 123.71L72.4847 124.79C72.1727 125.33 71.6927 125.786 71.0447 126.158C70.4087 126.53 69.6107 126.716 68.6507 126.716ZM68.5067 118.49C68.1587 118.49 67.8347 118.55 67.5347 118.67C67.2467 118.79 66.9947 118.964 66.7787 119.192C66.5747 119.408 66.4127 119.666 66.2927 119.966C66.1727 120.266 66.1127 120.596 66.1127 120.956V121.082H70.7747V120.902C70.7747 120.17 70.5647 119.588 70.1447 119.156C69.7367 118.712 69.1907 118.49 68.5067 118.49ZM75.3937 126.5V113.936H83.4757V115.628H77.4097V119.282H82.9177V120.974H77.4097V126.5H75.3937ZM90.6147 115.52C90.1107 115.52 89.7567 115.418 89.5527 115.214C89.3607 115.01 89.2647 114.758 89.2647 114.458V114.08C89.2647 113.78 89.3607 113.528 89.5527 113.324C89.7567 113.12 90.1047 113.018 90.5967 113.018C91.1007 113.018 91.4487 113.12 91.6407 113.324C91.8447 113.528 91.9467 113.78 91.9467 114.08V114.458C91.9467 114.758 91.8447 115.01 91.6407 115.214C91.4487 115.418 91.1067 115.52 90.6147 115.52ZM86.4567 124.916H89.6247V118.796H86.4567V117.212H91.5867V124.916H94.5567V126.5H86.4567V124.916ZM114.541 126.5L113.587 123.152H109.591L108.637 126.5H106.585L110.257 113.936H113.011L116.683 126.5H114.541ZM111.661 115.97H111.517L109.969 121.478H113.209L111.661 115.97ZM118.44 117.212H120.402V118.796H120.51C120.786 118.232 121.152 117.794 121.608 117.482C122.064 117.158 122.634 116.996 123.318 116.996C124.41 116.996 125.28 117.404 125.928 118.22C126.576 119.036 126.9 120.248 126.9 121.856C126.9 123.464 126.576 124.676 125.928 125.492C125.28 126.308 124.41 126.716 123.318 126.716C122.634 126.716 122.064 126.56 121.608 126.248C121.152 125.924 120.786 125.48 120.51 124.916H120.402V130.1H118.44V117.212ZM122.508 125.114C123.252 125.114 123.822 124.886 124.218 124.43C124.626 123.974 124.83 123.368 124.83 122.612V121.1C124.83 120.344 124.626 119.738 124.218 119.282C123.822 118.826 123.252 118.598 122.508 118.598C122.22 118.598 121.95 118.634 121.698 118.706C121.446 118.778 121.224 118.886 121.032 119.03C120.84 119.174 120.684 119.354 120.564 119.57C120.456 119.774 120.402 120.02 120.402 120.308V123.404C120.402 123.692 120.456 123.944 120.564 124.16C120.684 124.364 120.84 124.538 121.032 124.682C121.224 124.826 121.446 124.934 121.698 125.006C121.95 125.078 122.22 125.114 122.508 125.114ZM129.233 117.212H131.195V118.796H131.303C131.579 118.232 131.945 117.794 132.401 117.482C132.857 117.158 133.427 116.996 134.111 116.996C135.203 116.996 136.073 117.404 136.721 118.22C137.369 119.036 137.693 120.248 137.693 121.856C137.693 123.464 137.369 124.676 136.721 125.492C136.073 126.308 135.203 126.716 134.111 126.716C133.427 126.716 132.857 126.56 132.401 126.248C131.945 125.924 131.579 125.48 131.303 124.916H131.195V130.1H129.233V117.212ZM133.301 125.114C134.045 125.114 134.615 124.886 135.011 124.43C135.419 123.974 135.623 123.368 135.623 122.612V121.1C135.623 120.344 135.419 119.738 135.011 119.282C134.615 118.826 134.045 118.598 133.301 118.598C133.013 118.598 132.743 118.634 132.491 118.706C132.239 118.778 132.017 118.886 131.825 119.03C131.633 119.174 131.477 119.354 131.357 119.57C131.249 119.774 131.195 120.02 131.195 120.308V123.404C131.195 123.692 131.249 123.944 131.357 124.16C131.477 124.364 131.633 124.538 131.825 124.682C132.017 124.826 132.239 124.934 132.491 125.006C132.743 125.078 133.013 125.114 133.301 125.114ZM139.954 124.916H143.032V114.764H139.954V113.18H144.994V124.916H148.072V126.5H139.954V124.916ZM155.372 115.52C154.868 115.52 154.514 115.418 154.31 115.214C154.118 115.01 154.022 114.758 154.022 114.458V114.08C154.022 113.78 154.118 113.528 154.31 113.324C154.514 113.12 154.862 113.018 155.354 113.018C155.858 113.018 156.206 113.12 156.398 113.324C156.602 113.528 156.704 113.78 156.704 114.08V114.458C156.704 114.758 156.602 115.01 156.398 115.214C156.206 115.418 155.864 115.52 155.372 115.52ZM151.214 124.916H154.382V118.796H151.214V117.212H156.344V124.916H159.314V126.5H151.214V124.916ZM165.931 126.716C165.235 126.716 164.611 126.602 164.059 126.374C163.519 126.146 163.057 125.822 162.673 125.402C162.301 124.982 162.013 124.472 161.809 123.872C161.617 123.272 161.521 122.6 161.521 121.856C161.521 121.112 161.617 120.44 161.809 119.84C162.013 119.24 162.301 118.73 162.673 118.31C163.057 117.89 163.519 117.566 164.059 117.338C164.611 117.11 165.229 116.996 165.913 116.996C166.873 116.996 167.641 117.2 168.217 117.608C168.805 118.016 169.243 118.544 169.531 119.192L168.001 120.02C167.833 119.588 167.575 119.246 167.227 118.994C166.891 118.742 166.453 118.616 165.913 118.616C165.169 118.616 164.593 118.844 164.185 119.3C163.777 119.744 163.573 120.338 163.573 121.082V122.63C163.573 123.362 163.777 123.956 164.185 124.412C164.593 124.868 165.181 125.096 165.949 125.096C166.525 125.096 166.993 124.964 167.353 124.7C167.725 124.436 168.019 124.076 168.235 123.62L169.675 124.502C169.375 125.15 168.919 125.684 168.307 126.104C167.695 126.512 166.903 126.716 165.931 126.716ZM179.838 126.5C179.274 126.5 178.848 126.356 178.56 126.068C178.284 125.78 178.116 125.402 178.056 124.934H177.966C177.786 125.498 177.456 125.936 176.976 126.248C176.508 126.56 175.908 126.716 175.176 126.716C174.228 126.716 173.472 126.47 172.908 125.978C172.344 125.474 172.062 124.784 172.062 123.908C172.062 123.008 172.392 122.324 173.052 121.856C173.724 121.376 174.75 121.136 176.13 121.136H177.912V120.416C177.912 119.156 177.246 118.526 175.914 118.526C175.314 118.526 174.828 118.646 174.456 118.886C174.084 119.114 173.772 119.42 173.52 119.804L172.35 118.85C172.614 118.346 173.058 117.914 173.682 117.554C174.306 117.182 175.11 116.996 176.094 116.996C177.27 116.996 178.194 117.278 178.866 117.842C179.538 118.406 179.874 119.222 179.874 120.29V124.952H181.044V126.5H179.838ZM175.734 125.276C176.37 125.276 176.892 125.132 177.3 124.844C177.708 124.556 177.912 124.184 177.912 123.728V122.378H176.166C174.75 122.378 174.042 122.804 174.042 123.656V124.016C174.042 124.436 174.192 124.754 174.492 124.97C174.792 125.174 175.206 125.276 175.734 125.276ZM187.733 126.5C186.917 126.5 186.317 126.284 185.933 125.852C185.549 125.408 185.357 124.838 185.357 124.142V118.796H182.495V117.212H184.529C184.877 117.212 185.123 117.146 185.267 117.014C185.411 116.87 185.483 116.618 185.483 116.258V113.936H187.319V117.212H191.279V118.796H187.319V124.916H191.279V126.5H187.733ZM198.544 115.52C198.04 115.52 197.686 115.418 197.482 115.214C197.29 115.01 197.194 114.758 197.194 114.458V114.08C197.194 113.78 197.29 113.528 197.482 113.324C197.686 113.12 198.034 113.018 198.526 113.018C199.03 113.018 199.378 113.12 199.57 113.324C199.774 113.528 199.876 113.78 199.876 114.08V114.458C199.876 114.758 199.774 115.01 199.57 115.214C199.378 115.418 199.036 115.52 198.544 115.52ZM194.386 124.916H197.554V118.796H194.386V117.212H199.516V124.916H202.486V126.5H194.386V124.916ZM208.761 126.716C208.077 126.716 207.459 126.602 206.907 126.374C206.367 126.146 205.905 125.822 205.521 125.402C205.149 124.982 204.861 124.472 204.657 123.872C204.453 123.272 204.351 122.6 204.351 121.856C204.351 121.112 204.453 120.44 204.657 119.84C204.861 119.24 205.149 118.73 205.521 118.31C205.905 117.89 206.367 117.566 206.907 117.338C207.459 117.11 208.077 116.996 208.761 116.996C209.445 116.996 210.057 117.11 210.597 117.338C211.149 117.566 211.611 117.89 211.983 118.31C212.367 118.73 212.661 119.24 212.865 119.84C213.069 120.44 213.171 121.112 213.171 121.856C213.171 122.6 213.069 123.272 212.865 123.872C212.661 124.472 212.367 124.982 211.983 125.402C211.611 125.822 211.149 126.146 210.597 126.374C210.057 126.602 209.445 126.716 208.761 126.716ZM208.761 125.168C209.481 125.168 210.051 124.952 210.471 124.52C210.903 124.076 211.119 123.422 211.119 122.558V121.154C211.119 120.29 210.903 119.642 210.471 119.21C210.051 118.766 209.481 118.544 208.761 118.544C208.041 118.544 207.465 118.766 207.033 119.21C206.613 119.642 206.403 120.29 206.403 121.154V122.558C206.403 123.422 206.613 124.076 207.033 124.52C207.465 124.952 208.041 125.168 208.761 125.168ZM215.666 126.5V117.212H217.628V118.796H217.718C217.814 118.556 217.934 118.328 218.078 118.112C218.234 117.884 218.42 117.692 218.636 117.536C218.852 117.368 219.104 117.236 219.392 117.14C219.68 117.044 220.016 116.996 220.4 116.996C221.336 116.996 222.092 117.302 222.668 117.914C223.244 118.526 223.532 119.396 223.532 120.524V126.5H221.57V120.812C221.57 119.336 220.928 118.598 219.644 118.598C219.392 118.598 219.146 118.634 218.906 118.706C218.666 118.766 218.45 118.862 218.258 118.994C218.066 119.126 217.91 119.294 217.79 119.498C217.682 119.702 217.628 119.936 217.628 120.2V126.5H215.666ZM230.365 126.716C229.357 126.716 228.487 126.554 227.755 126.23C227.035 125.906 226.453 125.474 226.009 124.934L227.215 123.854C227.623 124.298 228.079 124.64 228.583 124.88C229.099 125.108 229.705 125.222 230.401 125.222C231.037 125.222 231.547 125.114 231.931 124.898C232.327 124.682 232.525 124.346 232.525 123.89C232.525 123.698 232.489 123.536 232.417 123.404C232.345 123.272 232.243 123.164 232.111 123.08C231.979 122.996 231.823 122.93 231.643 122.882C231.475 122.834 231.295 122.798 231.103 122.774L229.627 122.54C229.267 122.492 228.901 122.414 228.529 122.306C228.157 122.198 227.821 122.048 227.521 121.856C227.233 121.652 226.993 121.394 226.801 121.082C226.621 120.77 226.531 120.374 226.531 119.894C226.531 118.946 226.891 118.226 227.611 117.734C228.343 117.242 229.303 116.996 230.491 116.996C231.355 116.996 232.099 117.128 232.723 117.392C233.359 117.644 233.887 117.998 234.307 118.454L233.209 119.606C232.969 119.33 232.627 119.078 232.183 118.85C231.739 118.61 231.151 118.49 230.419 118.49C229.111 118.49 228.457 118.904 228.457 119.732C228.457 120.128 228.595 120.404 228.871 120.56C229.159 120.704 229.495 120.8 229.879 120.848L231.355 121.082C231.727 121.142 232.093 121.22 232.453 121.316C232.825 121.412 233.155 121.562 233.443 121.766C233.743 121.958 233.983 122.21 234.163 122.522C234.355 122.834 234.451 123.23 234.451 123.71C234.451 124.646 234.085 125.384 233.353 125.924C232.633 126.452 231.637 126.716 230.365 126.716Z" fill="#1B1E23"/>
<rect x="87" y="141.5" width="114" height="20" rx="8" fill="#F1F5FB"/>
<path d="M96.4084 156V147.273H99.4595C100.067 147.273 100.569 147.378 100.964 147.588C101.359 147.795 101.653 148.075 101.846 148.428C102.039 148.777 102.136 149.165 102.136 149.591C102.136 149.966 102.069 150.276 101.935 150.52C101.805 150.764 101.631 150.957 101.415 151.099C101.202 151.241 100.971 151.347 100.721 151.415V151.5C100.988 151.517 101.256 151.611 101.526 151.781C101.796 151.952 102.022 152.196 102.204 152.514C102.386 152.832 102.477 153.222 102.477 153.682C102.477 154.119 102.377 154.513 102.178 154.862C101.979 155.212 101.665 155.489 101.237 155.693C100.808 155.898 100.249 156 99.5618 156H96.4084ZM97.4652 155.062H99.5618C100.252 155.062 100.742 154.929 101.032 154.662C101.325 154.392 101.471 154.065 101.471 153.682C101.471 153.386 101.396 153.114 101.245 152.864C101.094 152.611 100.88 152.409 100.602 152.259C100.323 152.105 99.9936 152.028 99.6129 152.028H97.4652V155.062ZM97.4652 151.108H99.4254C99.7436 151.108 100.031 151.045 100.286 150.92C100.545 150.795 100.749 150.619 100.9 150.392C101.053 150.165 101.13 149.898 101.13 149.591C101.13 149.207 100.996 148.882 100.729 148.615C100.462 148.345 100.039 148.21 99.4595 148.21H97.4652V151.108ZM106.821 156.136C106.19 156.136 105.646 155.997 105.189 155.719C104.734 155.438 104.384 155.045 104.136 154.543C103.892 154.037 103.77 153.449 103.77 152.778C103.77 152.108 103.892 151.517 104.136 151.006C104.384 150.491 104.727 150.091 105.168 149.804C105.611 149.514 106.128 149.369 106.719 149.369C107.06 149.369 107.396 149.426 107.729 149.54C108.061 149.653 108.364 149.838 108.636 150.094C108.909 150.347 109.126 150.682 109.288 151.099C109.45 151.517 109.531 152.031 109.531 152.642V153.068H104.486V152.199H108.509C108.509 151.83 108.435 151.5 108.287 151.21C108.142 150.92 107.935 150.692 107.665 150.524C107.398 150.357 107.082 150.273 106.719 150.273C106.318 150.273 105.972 150.372 105.679 150.571C105.389 150.767 105.166 151.023 105.01 151.338C104.854 151.653 104.776 151.991 104.776 152.352V152.932C104.776 153.426 104.861 153.845 105.031 154.189C105.205 154.53 105.445 154.79 105.751 154.969C106.058 155.145 106.415 155.233 106.821 155.233C107.085 155.233 107.324 155.196 107.537 155.122C107.753 155.045 107.939 154.932 108.095 154.781C108.251 154.628 108.372 154.437 108.457 154.21L109.429 154.483C109.327 154.812 109.155 155.102 108.913 155.352C108.672 155.599 108.374 155.793 108.018 155.932C107.663 156.068 107.264 156.136 106.821 156.136ZM113.703 158.591C113.217 158.591 112.8 158.528 112.45 158.403C112.101 158.281 111.81 158.119 111.577 157.918C111.347 157.719 111.163 157.506 111.027 157.278L111.828 156.716C111.919 156.835 112.034 156.972 112.173 157.125C112.313 157.281 112.503 157.416 112.744 157.53C112.989 157.646 113.308 157.705 113.703 157.705C114.232 157.705 114.668 157.577 115.011 157.321C115.355 157.065 115.527 156.665 115.527 156.119V154.79H115.442C115.368 154.909 115.263 155.057 115.126 155.233C114.993 155.406 114.8 155.561 114.547 155.697C114.297 155.831 113.959 155.898 113.533 155.898C113.004 155.898 112.53 155.773 112.109 155.523C111.692 155.273 111.361 154.909 111.116 154.432C110.875 153.955 110.754 153.375 110.754 152.693C110.754 152.023 110.872 151.439 111.108 150.942C111.344 150.442 111.672 150.055 112.092 149.783C112.513 149.507 112.999 149.369 113.55 149.369C113.976 149.369 114.314 149.44 114.564 149.582C114.817 149.722 115.01 149.881 115.143 150.06C115.28 150.236 115.385 150.381 115.459 150.494H115.561V149.455H116.533V156.188C116.533 156.75 116.405 157.207 116.149 157.56C115.896 157.915 115.555 158.175 115.126 158.339C114.7 158.507 114.226 158.591 113.703 158.591ZM113.669 154.994C114.072 154.994 114.413 154.902 114.692 154.717C114.97 154.533 115.182 154.267 115.327 153.92C115.472 153.574 115.544 153.159 115.544 152.676C115.544 152.205 115.473 151.788 115.331 151.428C115.189 151.067 114.979 150.784 114.7 150.58C114.422 150.375 114.078 150.273 113.669 150.273C113.243 150.273 112.888 150.381 112.604 150.597C112.322 150.812 112.111 151.102 111.969 151.466C111.83 151.83 111.76 152.233 111.76 152.676C111.76 153.131 111.831 153.533 111.973 153.882C112.118 154.229 112.331 154.501 112.612 154.7C112.896 154.896 113.249 154.994 113.669 154.994ZM118.374 156V149.455H119.379V156H118.374ZM118.885 148.364C118.689 148.364 118.52 148.297 118.378 148.163C118.239 148.03 118.169 147.869 118.169 147.682C118.169 147.494 118.239 147.334 118.378 147.2C118.52 147.067 118.689 147 118.885 147C119.081 147 119.249 147.067 119.388 147.2C119.53 147.334 119.601 147.494 119.601 147.682C119.601 147.869 119.53 148.03 119.388 148.163C119.249 148.297 119.081 148.364 118.885 148.364ZM122.227 152.062V156H121.221V149.455H122.193V150.477H122.278C122.431 150.145 122.664 149.878 122.977 149.676C123.289 149.472 123.693 149.369 124.187 149.369C124.63 149.369 125.018 149.46 125.35 149.642C125.683 149.821 125.941 150.094 126.126 150.46C126.311 150.824 126.403 151.284 126.403 151.841V156H125.397V151.909C125.397 151.395 125.264 150.994 124.997 150.707C124.73 150.418 124.363 150.273 123.897 150.273C123.576 150.273 123.289 150.342 123.037 150.482C122.787 150.621 122.589 150.824 122.444 151.091C122.299 151.358 122.227 151.682 122.227 152.062ZM131.616 156V149.455H132.587V150.443H132.656C132.775 150.119 132.991 149.857 133.303 149.655C133.616 149.453 133.968 149.352 134.36 149.352C134.434 149.352 134.526 149.354 134.637 149.357C134.748 149.359 134.832 149.364 134.888 149.369V150.392C134.854 150.384 134.776 150.371 134.654 150.354C134.535 150.334 134.408 150.324 134.275 150.324C133.957 150.324 133.673 150.391 133.423 150.524C133.175 150.655 132.979 150.837 132.835 151.07C132.692 151.3 132.621 151.562 132.621 151.858V156H131.616ZM138.007 156.153C137.592 156.153 137.216 156.075 136.877 155.919C136.539 155.76 136.271 155.531 136.072 155.233C135.873 154.932 135.774 154.568 135.774 154.142C135.774 153.767 135.848 153.463 135.995 153.23C136.143 152.994 136.341 152.81 136.588 152.676C136.835 152.543 137.108 152.443 137.406 152.378C137.707 152.31 138.01 152.256 138.314 152.216C138.711 152.165 139.034 152.126 139.281 152.101C139.531 152.072 139.713 152.026 139.826 151.96C139.943 151.895 140.001 151.781 140.001 151.619V151.585C140.001 151.165 139.886 150.838 139.656 150.605C139.429 150.372 139.083 150.256 138.62 150.256C138.14 150.256 137.764 150.361 137.491 150.571C137.218 150.781 137.027 151.006 136.916 151.244L135.961 150.903C136.132 150.506 136.359 150.196 136.643 149.974C136.93 149.75 137.243 149.594 137.581 149.506C137.922 149.415 138.257 149.369 138.586 149.369C138.797 149.369 139.038 149.395 139.311 149.446C139.586 149.494 139.852 149.595 140.108 149.749C140.366 149.902 140.581 150.134 140.751 150.443C140.922 150.753 141.007 151.168 141.007 151.688V156H140.001V155.114H139.95C139.882 155.256 139.768 155.408 139.609 155.57C139.45 155.732 139.238 155.869 138.974 155.983C138.71 156.097 138.387 156.153 138.007 156.153ZM138.16 155.25C138.558 155.25 138.893 155.172 139.166 155.016C139.441 154.859 139.649 154.658 139.788 154.411C139.93 154.163 140.001 153.903 140.001 153.631V152.71C139.958 152.761 139.865 152.808 139.72 152.851C139.578 152.891 139.413 152.926 139.225 152.957C139.041 152.986 138.86 153.011 138.684 153.034C138.511 153.054 138.37 153.071 138.262 153.085C138.001 153.119 137.757 153.175 137.529 153.251C137.305 153.325 137.123 153.437 136.984 153.588C136.848 153.736 136.779 153.937 136.779 154.193C136.779 154.543 136.909 154.807 137.167 154.986C137.429 155.162 137.76 155.25 138.16 155.25ZM143.848 152.062V156H142.842V149.455H143.814V150.477H143.899C144.053 150.145 144.286 149.878 144.598 149.676C144.911 149.472 145.314 149.369 145.808 149.369C146.251 149.369 146.639 149.46 146.972 149.642C147.304 149.821 147.563 150.094 147.747 150.46C147.932 150.824 148.024 151.284 148.024 151.841V156H147.018V151.909C147.018 151.395 146.885 150.994 146.618 150.707C146.351 150.418 145.984 150.273 145.518 150.273C145.197 150.273 144.911 150.342 144.658 150.482C144.408 150.621 144.21 150.824 144.065 151.091C143.92 151.358 143.848 151.682 143.848 152.062ZM150.799 153.614L150.782 152.369H150.987L153.85 149.455H155.095L152.044 152.54H151.958L150.799 153.614ZM149.862 156V147.273H150.868V156H149.862ZM154.021 156L151.464 152.761L152.18 152.062L155.299 156H154.021ZM156.389 156V149.455H157.395V156H156.389ZM156.901 148.364C156.705 148.364 156.536 148.297 156.393 148.163C156.254 148.03 156.185 147.869 156.185 147.682C156.185 147.494 156.254 147.334 156.393 147.2C156.536 147.067 156.705 147 156.901 147C157.097 147 157.264 147.067 157.403 147.2C157.545 147.334 157.616 147.494 157.616 147.682C157.616 147.869 157.545 148.03 157.403 148.163C157.264 148.297 157.097 148.364 156.901 148.364ZM160.243 152.062V156H159.237V149.455H160.208V150.477H160.294C160.447 150.145 160.68 149.878 160.993 149.676C161.305 149.472 161.708 149.369 162.203 149.369C162.646 149.369 163.034 149.46 163.366 149.642C163.699 149.821 163.957 150.094 164.142 150.46C164.326 150.824 164.419 151.284 164.419 151.841V156H163.413V151.909C163.413 151.395 163.279 150.994 163.012 150.707C162.745 150.418 162.379 150.273 161.913 150.273C161.592 150.273 161.305 150.342 161.052 150.482C160.802 150.621 160.605 150.824 160.46 151.091C160.315 151.358 160.243 151.682 160.243 152.062ZM168.898 158.591C168.413 158.591 167.995 158.528 167.646 158.403C167.296 158.281 167.005 158.119 166.772 157.918C166.542 157.719 166.359 157.506 166.222 157.278L167.023 156.716C167.114 156.835 167.229 156.972 167.369 157.125C167.508 157.281 167.698 157.416 167.94 157.53C168.184 157.646 168.504 157.705 168.898 157.705C169.427 157.705 169.863 157.577 170.207 157.321C170.55 157.065 170.722 156.665 170.722 156.119V154.79H170.637C170.563 154.909 170.458 155.057 170.322 155.233C170.188 155.406 169.995 155.561 169.742 155.697C169.492 155.831 169.154 155.898 168.728 155.898C168.2 155.898 167.725 155.773 167.305 155.523C166.887 155.273 166.556 154.909 166.312 154.432C166.07 153.955 165.95 153.375 165.95 152.693C165.95 152.023 166.067 151.439 166.303 150.942C166.539 150.442 166.867 150.055 167.288 149.783C167.708 149.507 168.194 149.369 168.745 149.369C169.171 149.369 169.509 149.44 169.759 149.582C170.012 149.722 170.205 149.881 170.339 150.06C170.475 150.236 170.58 150.381 170.654 150.494H170.756V149.455H171.728V156.188C171.728 156.75 171.6 157.207 171.344 157.56C171.092 157.915 170.751 158.175 170.322 158.339C169.896 158.507 169.421 158.591 168.898 158.591ZM168.864 154.994C169.268 154.994 169.609 154.902 169.887 154.717C170.165 154.533 170.377 154.267 170.522 153.92C170.667 153.574 170.739 153.159 170.739 152.676C170.739 152.205 170.668 151.788 170.526 151.428C170.384 151.067 170.174 150.784 169.896 150.58C169.617 150.375 169.273 150.273 168.864 150.273C168.438 150.273 168.083 150.381 167.799 150.597C167.518 150.812 167.306 151.102 167.164 151.466C167.025 151.83 166.955 152.233 166.955 152.676C166.955 153.131 167.026 153.533 167.168 153.882C167.313 154.229 167.526 154.501 167.808 154.7C168.092 154.896 168.444 154.994 168.864 154.994Z" fill="#1C64F2"/>
<path d="M185.375 147L189.875 151.5L185.375 156" stroke="#1C64F2" stroke-width="2" stroke-miterlimit="10" stroke-linecap="square"/>
<path d="M189.25 151.5H180.125" stroke="#1C64F2" stroke-width="2" stroke-miterlimit="10" stroke-linecap="square"/>
<rect x="33" y="95.5" width="222" height="77" rx="15" stroke="white" stroke-opacity="0.3" stroke-width="6"/>
<defs>
<filter id="filter0_d_2698_8010" x="25" y="27.5" width="91" height="91" filterUnits="userSpaceOnUse" color-interpolation-filters="sRGB">
<feFlood flood-opacity="0" result="BackgroundImageFix"/>
<feColorMatrix in="SourceAlpha" type="matrix" values="0 0 0 0 0 0 0 0 0 0 0 0 0 0 0 0 0 0 127 0" result="hardAlpha"/>
<feOffset/>
<feGaussianBlur stdDeviation="5"/>
<feComposite in2="hardAlpha" operator="out"/>
<feColorMatrix type="matrix" values="0 0 0 0 0.00288194 0 0 0 0 0.132691 0 0 0 0 0.345833 0 0 0 0.56 0"/>
<feBlend mode="normal" in2="BackgroundImageFix" result="effect1_dropShadow_2698_8010"/>
<feBlend mode="normal" in="SourceGraphic" in2="effect1_dropShadow_2698_8010" result="shape"/>
</filter>
</defs>
</svg>
