<svg width="290" height="273" viewBox="0 0 290 273" fill="none" xmlns="http://www.w3.org/2000/svg">
<path fill-rule="evenodd" clip-rule="evenodd" d="M289.707 137.227C289.076 136.598 194.177 136.705 193.18 137.335C192.722 137.625 192.447 138.384 192.57 139.021C192.787 140.144 194.316 140.18 241.289 140.18C289.639 140.18 289.785 140.177 289.964 138.922C290.064 138.23 289.948 137.467 289.707 137.227ZM288.405 99.9541C287.995 98.779 286.147 99.0047 277.642 101.27C269.096 103.545 268.467 103.8 268.467 105.001C268.467 107.194 270.08 107.257 277.201 105.343C288.71 102.251 289.136 102.045 288.405 99.9541ZM284.069 174.189C283.813 174.035 280.301 173.025 276.262 171.945C269.961 170.259 268.797 170.103 268.053 170.846C266.276 172.619 267.793 173.606 275.361 175.604C279.449 176.683 283.184 177.417 283.663 177.234C284.573 176.885 284.868 174.672 284.069 174.189ZM270.166 188.759C268.793 187.721 252.461 181.177 251.243 181.177C249.769 181.177 249.16 182.613 250.128 183.809C251.172 185.1 268.921 192.298 270.021 191.877C271.138 191.449 271.227 189.561 270.166 188.759ZM269.291 86.6482C268.35 85.7093 265.619 86.6051 252.094 92.2879C239.997 97.3697 237.853 98.4658 237.685 99.6483C237.572 100.437 237.871 101.185 238.374 101.378C239.219 101.702 267.319 90.4822 268.931 89.1771C269.772 88.4959 269.943 87.2986 269.291 86.6482ZM267.366 207.517C266.782 206.999 256.573 200.97 244.679 194.12C232.785 187.268 215.963 177.572 207.297 172.571C186.588 160.62 187.594 161.117 186.437 162.271C185.923 162.784 185.648 163.572 185.824 164.022C186.154 164.86 265.452 210.769 266.57 210.769C266.91 210.769 267.467 210.25 267.808 209.614C268.276 208.74 268.168 208.229 267.366 207.517ZM266.459 121.528C265.345 120.639 193.115 130.206 192.396 131.338C190.357 134.548 191.516 134.493 228.939 129.636C248.471 127.101 265.077 124.766 265.841 124.448C267.374 123.81 267.655 122.483 266.459 121.528ZM266.665 153.158C266.353 152.966 258.915 151.854 250.137 150.688C216.05 146.159 195.701 143.571 194.184 143.571C192.365 143.571 191.404 145.27 192.6 146.372C193.514 147.214 265.643 156.808 266.604 156.215C267.386 155.733 267.428 153.629 266.665 153.158ZM261.825 70.2907C260.972 69.8352 252.993 74.1808 224.078 90.8453C203.912 102.468 186.976 112.414 186.441 112.948C185.621 113.766 185.598 114.073 186.3 114.916C186.756 115.465 187.58 115.797 188.129 115.654C189.151 115.387 260.737 74.2671 262.134 73.1439C263.231 72.2623 263.09 70.9664 261.825 70.2907ZM251.503 108.835C250.397 108.412 192.472 123.74 191.364 124.75C190.269 125.747 191.088 127.542 192.638 127.542C193.338 127.542 197.132 126.687 201.067 125.642C236.819 116.145 249.827 112.626 251.012 112.126C252.57 111.469 252.884 109.364 251.503 108.835ZM251.63 165.439C250.926 165.178 236.422 161.282 204.322 152.732C193.236 149.78 192.314 149.626 191.368 150.57C190.475 151.462 190.46 151.695 191.255 152.486C191.752 152.981 203.142 156.32 216.566 159.907C229.989 163.493 243.105 167.01 245.713 167.722C248.321 168.433 250.893 168.847 251.429 168.642C252.586 168.2 252.734 165.849 251.63 165.439ZM244.833 213.048C235.753 205.718 224.835 197.806 224.016 197.961C223.486 198.061 222.968 198.737 222.864 199.463C222.688 200.687 227.328 204.545 244.755 217.666C245.781 218.438 247.459 217.587 247.459 216.293C247.459 215.674 246.278 214.214 244.833 213.048ZM211.95 203.371C194.509 185.968 180.27 172.238 179.665 172.238C176.094 172.238 178.402 174.845 209.243 205.634C240.129 236.469 242.42 238.492 242.982 235.429C243.08 234.899 229.829 221.211 211.95 203.371ZM233.743 49.9871C233.335 49.5802 232.706 49.2473 232.346 49.2473C231.985 49.2473 226.869 54.0633 220.977 59.9503C210.235 70.681 208.901 72.6205 211.87 73.1914C212.696 73.3498 216.123 70.3321 223.757 62.7245C229.657 56.845 234.484 51.7404 234.484 51.381C234.484 51.0209 234.15 50.394 233.743 49.9871ZM232.167 172.942C227.544 170.579 190.91 155.873 190.055 156.037C189.49 156.146 189.07 156.838 189.07 157.662C189.07 158.966 191.023 159.906 210.497 167.977C222.646 173.012 232.345 176.696 232.895 176.485C234.436 175.895 234.025 173.892 232.167 172.942ZM229.75 74.0612C229.578 73.6377 228.919 73.2906 228.284 73.2906C227.17 73.2906 185.206 104.849 183.077 107.288C181.815 108.734 182.252 110.28 183.923 110.28C185.118 110.28 230.204 76.0994 230.11 75.2646C230.084 75.0267 229.921 74.4854 229.75 74.0612ZM222.456 37.1479C221.957 36.9574 221.291 36.8964 220.976 37.0135C219.771 37.4593 173.314 98.5633 173.314 99.7019C173.314 101.196 174.742 101.804 175.976 100.836C176.486 100.436 185.213 89.2887 195.369 76.0648C205.524 62.841 215.977 49.2374 218.598 45.8344C223.348 39.6657 224.174 37.8057 222.456 37.1479ZM219.978 106.364C218.99 105.985 190.859 117.276 189.449 118.618C188.317 119.694 189.015 121.377 190.593 121.377C191.671 121.377 216.384 111.41 219.711 109.634C221.109 108.888 221.274 106.86 219.978 106.364ZM194.733 200.446C180.179 181.553 175.824 176.285 174.859 176.403C171.86 176.769 173.323 179.078 191.557 202.755C201.611 215.809 210.189 226.847 210.619 227.283C211.712 228.389 213.487 227.553 213.424 225.962C213.395 225.229 205.068 213.862 194.733 200.446ZM198.516 177.478C191.659 172.223 185.535 167.667 184.907 167.354C183.211 166.51 181.426 168.381 182.591 169.783C183.355 170.701 191.375 176.962 204.053 186.537C209.229 190.446 211.015 190.914 210.994 188.355C210.986 187.37 207.821 184.61 198.516 177.478ZM206.022 240.716C201.837 233.638 201.096 232.774 199.684 233.315C198.066 233.934 198.403 235.117 202.034 241.573C206.264 249.094 207.417 250.547 208.746 250.039C210.466 249.38 209.802 247.109 206.022 240.716ZM200.791 42.8431C200.272 42.3253 199.482 42.0417 199.035 42.2124C198.068 42.583 168.269 93.8896 167.899 95.8223C167.547 97.6576 169.493 98.3623 170.864 96.8956C171.675 96.0264 198.066 50.7306 201.024 45.1285C201.59 44.0564 201.543 43.594 200.791 42.8431ZM197.369 260.397C196.051 257.345 188.305 238.783 180.157 219.146C172.008 199.51 165.005 183.237 164.595 182.984C163.68 182.42 162.388 182.862 161.999 183.874C161.84 184.287 163.728 189.467 166.195 195.385C168.66 201.304 176.428 220.017 183.455 236.97C190.483 253.924 196.623 268.187 197.1 268.667C197.811 269.381 198.14 269.396 198.925 268.746C200.266 267.635 200.091 266.695 197.369 260.397ZM195.764 87.8812C194.626 86.7463 192.758 88.089 185.817 95.0307C178.066 102.784 176.534 105.348 179.657 105.348C180.624 105.348 183.392 103.012 188.616 97.7877C195.571 90.8312 196.889 89.0039 195.764 87.8812ZM193.395 22.3446C192.886 22.1492 192.099 22.1307 191.648 22.3039C190.53 22.7318 183.147 40.9924 183.607 42.1902C183.817 42.7352 184.535 43.0669 185.274 42.9609C186.306 42.8123 187.359 40.9394 190.403 33.8349C194.488 24.2995 194.852 22.9025 193.395 22.3446ZM181.09 197.82C172.396 182.763 170.742 180.253 169.513 180.253C168.682 180.253 167.998 180.673 167.886 181.252C167.719 182.119 186.639 215.611 188.21 217.229C188.828 217.865 190.684 217.036 191.042 215.963C191.148 215.647 186.67 207.483 181.09 197.82ZM180.795 54.2729C180.507 53.8155 179.749 53.5412 179.11 53.6632C178.246 53.8285 176.633 57.0355 172.803 66.2077C161.755 92.6621 161.545 93.2361 162.543 94.241C163.185 94.8871 163.733 94.9777 164.413 94.5492C164.941 94.2157 168.827 85.6384 173.046 75.4878C181.896 54.1996 181.475 55.3524 180.795 54.2729ZM174.753 32.1395C174.302 31.0021 172.21 31.2037 171.548 32.4478C171.231 33.0414 170.133 36.717 169.105 40.6163C165.644 53.7551 157.176 85.2882 156.318 88.232C155.581 90.7615 155.589 91.2738 156.376 92.0592C157.641 93.3206 158.931 92.6473 159.664 90.3441C160.157 88.7943 173.947 37.4118 174.83 33.8349C174.955 33.3263 174.921 32.5637 174.753 32.1395ZM173.328 237.587C172.37 234.196 169.171 222.406 166.22 211.386C158.714 183.357 159.191 184.876 157.899 184.876C157.285 184.876 156.507 185.223 156.169 185.647C155.43 186.575 171.008 245.249 172.187 245.977C173.122 246.553 175.185 245.514 175.118 244.501C175.092 244.089 174.286 240.978 173.328 237.587ZM160.937 246.526C160.305 241.949 159.62 237.049 159.416 235.638C159.014 232.866 157.587 231.746 156.208 233.121C155.525 233.803 155.646 235.898 156.931 245.592C157.781 252 158.726 257.493 159.033 257.799C160.079 258.843 161.88 257.98 161.986 256.384C162.042 255.54 161.57 251.103 160.937 246.526ZM158.656 40.5017C158.023 39.9776 157.468 39.9493 156.746 40.4036C155.927 40.919 155.089 45.8701 152.47 65.6442C149.512 87.978 149.303 90.3114 150.201 90.9723C151.66 92.0457 152.848 91.3089 153.212 89.1056C153.39 88.0366 154.787 77.452 156.319 65.5844C157.851 53.7169 159.204 43.3844 159.326 42.6236C159.448 41.8629 159.146 40.9079 158.656 40.5017ZM155.382 204.549C154.138 195.195 152.921 187.219 152.677 186.825C152.154 185.981 150.056 185.87 149.566 186.661C149.129 187.368 153.408 220.483 154.175 222.329C154.863 223.983 156.38 224.142 157.116 222.637C157.442 221.97 156.78 215.064 155.382 204.549ZM137.14 67.1257C135.678 56.4449 134.462 47.6364 134.436 47.5519C134.266 47.002 131.377 47.5433 131.147 48.1684C130.878 48.9008 135.985 89.3966 136.551 91.0149C136.7 91.439 137.524 91.7855 138.385 91.7855C139.825 91.7855 139.943 91.5777 139.873 89.1654C139.831 87.724 138.601 77.8065 137.14 67.1257ZM139.537 187.137C138.732 186.333 136.937 186.743 136.611 187.805C135.964 189.903 128.776 245.607 128.954 247.134C129.095 248.328 129.491 248.684 130.681 248.684L132.226 248.684L136.043 220.017C139.952 190.663 140.251 187.849 139.537 187.137ZM125.787 61.2689C118.174 33.1432 117.901 32.2936 116.443 32.2936C115.552 32.2936 114.864 32.6987 114.75 33.2893C114.495 34.6098 129.829 91.6856 130.729 92.7682C131.64 93.8637 133.799 92.7978 133.7 91.3015C133.661 90.7202 130.101 77.2054 125.787 61.2689ZM132.843 185.716C132.334 185.521 131.553 185.5 131.109 185.67C130.221 186.01 130.305 185.729 123.578 210.769C120.982 220.433 116.922 235.539 114.557 244.339C112.191 253.139 110.393 260.699 110.563 261.139C111.068 262.453 113.354 262.061 113.998 260.551C114.701 258.902 133.77 187.717 133.77 186.743C133.77 186.373 133.353 185.911 132.843 185.716ZM132.204 29.5194C131.757 26.6373 131.371 24.2101 131.345 24.1251C131.179 23.5751 128.287 24.1164 128.053 24.7416C127.617 25.9049 129.375 37.7108 130.091 38.4247C131.034 39.3661 132.828 37.9845 132.929 36.2386C132.977 35.4254 132.65 32.4015 132.204 29.5194ZM126.44 90.2442C125.842 88.888 118.016 70.0928 109.05 48.4766C94.4035 13.165 92.6092 9.17503 91.3765 9.17503C89.4654 9.17503 89.2751 10.2502 90.5887 13.6243C91.5829 16.1778 120.949 87.0792 123.554 93.2121C124.339 95.0622 124.843 95.5227 125.917 95.3698C127.67 95.1213 127.843 93.4248 126.44 90.2442ZM126.673 183.651C125.837 182.958 125.534 182.966 124.798 183.701C123.53 184.965 108.327 221.763 108.564 222.993C108.681 223.602 109.347 224.024 110.19 224.024C111.478 224.024 112.367 222.222 119.315 205.529C123.549 195.357 127.161 186.459 127.342 185.756C127.538 184.994 127.268 184.143 126.673 183.651ZM117.557 88.6001C115.14 84.4184 110.604 76.558 107.478 71.1329C102.664 62.7793 101.571 61.2689 100.336 61.2689C99.4911 61.2689 98.7972 61.6832 98.6872 62.2535C98.4907 63.2695 117.89 97.3025 119.086 98.0398C119.959 98.578 121.234 98.0731 121.635 97.0294C121.809 96.5751 119.975 92.7817 117.557 88.6001ZM121.622 181.332C121.083 180.001 119.075 180.491 117.831 182.256C117.175 183.188 115.535 185.894 114.187 188.267C112.84 190.641 106.407 201.784 99.8921 213.029C93.3778 224.275 88.0474 233.885 88.0474 234.387C88.0474 235.845 90.0042 236.221 91.1905 234.991C92.1012 234.046 122.117 182.624 121.982 182.24C121.955 182.164 121.793 181.756 121.622 181.332ZM97.7672 75.1401C82.112 54.7754 78.799 50.7885 77.5317 50.7885C76.6747 50.7885 75.9382 51.1905 75.8381 51.7132C75.7405 52.2219 84.0831 63.5962 94.3775 76.9896C110.083 97.4227 113.34 101.341 114.619 101.341C115.486 101.341 116.218 100.942 116.316 100.416C116.41 99.9078 108.063 88.5335 97.7672 75.1401ZM115.459 177.052C114.903 176.84 114.061 176.918 113.587 177.226C111.896 178.326 65.8026 238.838 65.9645 239.745C66.0584 240.27 66.7838 240.669 67.6457 240.669C68.9105 240.669 71.9368 237.068 85.865 218.99C115.121 181.018 116.47 179.226 116.47 178.324C116.47 177.838 116.015 177.266 115.459 177.052ZM84.1294 76.042C66.4872 58.4552 56.1959 48.6308 55.4143 48.6308C51.555 48.6308 53.2023 50.5394 81.0679 78.3619C108.844 106.094 110.799 107.782 111.415 104.555C111.563 103.787 103.286 95.1392 84.1294 76.042ZM111.115 172.958C110.888 172.731 110.259 172.546 109.716 172.546C108.581 172.546 92.9904 187.906 92.9904 189.025C92.9904 189.432 93.57 190.074 94.2774 190.453C95.4366 191.071 96.3628 190.352 103.546 183.261C110.854 176.046 112.273 174.114 111.115 172.958ZM105.851 107.271C100.23 102.474 80.7311 88.0951 79.8414 88.0914C78.0402 88.0834 77.8407 89.8978 79.4651 91.5019C80.277 92.304 86.2247 96.9992 92.6815 101.936C104.24 110.774 106.606 112.023 107.08 109.54C107.19 108.963 106.637 107.942 105.851 107.271ZM106.789 168.026C106.563 167.799 105.989 167.615 105.513 167.615C104.432 167.615 60.238 201.434 59.7863 202.607C59.6047 203.08 59.8926 203.903 60.4265 204.435C61.5597 205.566 59.124 207.266 87.9263 185.24C105.85 171.532 108.177 169.409 106.789 168.026ZM104.929 235.164C103.346 234.558 102.637 235.679 98.9115 244.677C95.0145 254.087 94.7155 255.773 96.9405 255.773C97.7536 255.773 98.563 255.427 98.7385 255.003C98.914 254.579 100.613 250.522 102.512 245.987C106.23 237.109 106.528 235.776 104.929 235.164ZM99.3601 111.012C62.1256 89.3405 23.9823 67.7329 23.2192 67.8778C22.6823 67.9795 22.1602 68.6447 22.0576 69.3549C21.9112 70.3752 22.7564 71.168 26.0738 73.1229C29.7384 75.2825 52.3113 88.3047 90.1772 110.105C96.2769 113.616 101.699 116.407 102.226 116.307C102.753 116.207 103.271 115.525 103.376 114.792C103.53 113.72 102.747 112.982 99.3601 111.012ZM102.507 162.437C101.795 162.163 95.4514 165.5 82.8566 172.773C72.6283 178.68 56.1959 188.153 46.3407 193.825C36.4856 199.496 28.0745 204.414 27.65 204.754C26.607 205.588 26.6706 207.646 27.7513 208.06C28.6021 208.386 34.6314 205.011 80.9418 178.285C98.0267 168.425 103.229 165.146 103.373 164.144C103.485 163.358 103.141 162.679 102.507 162.437ZM100.614 157.288C100.442 156.865 99.8148 156.518 99.2186 156.518C97.7079 156.518 70.0425 168.053 68.9575 169.135C68.2321 169.86 68.2154 170.191 68.8673 170.974C69.3047 171.5 69.9257 171.93 70.247 171.93C71.1275 171.93 99.3607 160.206 100.25 159.471C101.067 158.796 101.113 158.523 100.614 157.288ZM99.0147 118.348C98.2498 118.056 88.8284 114.178 78.0773 109.733C67.3257 105.287 57.9716 101.649 57.2895 101.649C55.89 101.649 55.1708 102.909 55.8987 104.085C56.5443 105.127 98.6434 122.515 99.6326 122.149C100.98 121.649 100.538 118.932 99.0147 118.348ZM96.5784 124.553C95.4545 124.2 81.9174 120.544 66.4952 116.428C42.4055 109.999 38.3331 109.066 37.5867 109.811C35.7361 111.658 37.3228 112.55 47.1477 115.186C87.5049 126.015 95.9185 128.182 97.0066 128.027C97.7276 127.924 98.3214 127.298 98.432 126.523C98.5797 125.489 98.1688 125.053 96.5784 124.553ZM97.6764 150.596C96.3899 150.103 38.5586 165.571 37.4038 166.717C36.6092 167.505 36.6253 167.74 37.5329 168.647C38.4999 169.611 40.1855 169.246 63.4615 163.038C101.536 152.883 98.2145 153.899 98.4401 152.335C98.5575 151.522 98.246 150.814 97.6764 150.596ZM96.5586 131.464C96.1428 131.207 79.5293 128.85 59.6405 126.226C29.1181 122.198 23.3459 121.585 22.6223 122.293C21.4873 123.404 22.1509 124.965 23.9162 125.34C24.6953 125.505 37.1498 127.173 51.5927 129.047C66.0355 130.919 81.8841 132.981 86.8116 133.628C95.7925 134.805 97.3155 134.677 97.3155 132.744C97.3155 132.296 96.9751 131.72 96.5586 131.464ZM96.3436 144.394C95.7591 144.169 88.4397 144.866 80.0786 145.942C44.2109 150.555 23.8173 153.344 23.2068 153.721C22.403 154.216 22.3437 156.316 23.1197 156.794C23.8297 157.233 94.8131 148.032 96.0798 147.337C97.4249 146.601 97.58 144.867 96.3436 144.394ZM95.9686 137.706C95.52 137.536 73.7436 137.467 47.5765 137.555L2.44979e-05 137.714L2.44305e-05 139.256L2.43631e-05 140.797L48.1944 140.797L96.3887 140.797L96.5864 139.407C96.6952 138.643 96.4171 137.877 95.9686 137.706ZM87.0001 35.6844C82.1213 27.2433 81.3681 26.5393 79.8259 28.9787C79.3947 29.6612 80.3394 31.8152 83.4152 37.1602C85.7118 41.1508 87.9751 44.5625 88.4447 44.7425C89.2726 45.0594 91.1572 43.9442 91.117 43.1612C91.1065 42.9479 89.2535 39.5837 87.0001 35.6844ZM78.985 205.015C77.8116 203.844 75.714 205.493 65.8897 215.307C55.1177 226.068 53.7478 228.07 56.8514 228.516C57.7374 228.644 61.061 225.702 68.7394 217.996C78.5593 208.14 80.1262 206.154 78.985 205.015ZM65.6704 76.558C64.8943 75.8417 59.8463 71.8856 54.4535 67.7668C44.6027 60.2437 42.0156 59.0119 42.0156 61.8441C42.0156 63.4365 63.7259 80.1621 65.4887 79.9278C67.2361 79.6948 67.3232 78.0832 65.6704 76.558ZM51.1293 176.961C50.326 176.544 46.1918 177.998 35.0645 182.61C21.7993 188.106 20.081 188.977 20.081 190.202C20.081 190.962 20.3658 191.761 20.7137 191.975C21.2865 192.329 44.2857 183.249 49.8935 180.457C52.3861 179.216 52.8649 177.861 51.1293 176.961ZM39.0807 93.8187C37.7071 92.7805 21.3748 86.237 20.157 86.237C18.6778 86.237 17.9178 88.0545 18.9769 89.06C19.4143 89.4755 23.9162 91.505 28.9809 93.5709C36.0148 96.44 38.3862 97.1644 39.0214 96.6385C40.0631 95.7761 40.0885 94.5801 39.0807 93.8187ZM21.4712 104.528C21.216 104.376 17.7133 103.377 13.6866 102.31C8.01388 100.805 6.17013 100.529 5.49975 101.084C4.51733 101.897 4.45617 102.265 5.12533 103.316C5.73889 104.279 19.7783 108.062 21.001 107.594C21.9606 107.227 22.2985 105.022 21.4712 104.528ZM20.2868 171.725C19.549 170.988 17.7633 171.281 9.91631 173.427C1.10293 175.837 0.926872 175.916 0.926872 177.449C0.926872 179.289 2.38192 179.345 8.4569 177.737C19.9877 174.686 20.6989 174.426 20.6989 173.249C20.6989 172.636 20.5135 171.95 20.2868 171.725Z" fill="white"/>
<g clip-path="url(#clip0_1064_1851)">
<path d="M146.415 55.8784L150.933 65.4478L156.662 56.5501L159.894 66.6274L166.735 58.5537L168.623 68.9665L176.46 61.8548L176.973 72.425L185.671 66.397L184.799 76.9438L194.21 72.1027L191.969 82.4455L201.931 78.8741L198.36 88.8359L208.703 86.5954L203.862 96.006L214.408 95.1345L208.38 103.832L218.95 104.345L211.839 112.182L222.251 114.07L214.178 120.912L224.255 124.143L215.357 129.872L224.927 134.391L215.357 138.909L224.255 144.638L214.178 147.87L222.251 154.711L211.839 156.599L218.95 164.436L208.38 164.949L214.408 173.647L203.862 172.775L208.703 182.186L198.36 179.945L201.931 189.907L191.969 186.336L194.21 196.679L184.799 191.838L185.671 202.384L176.973 196.356L176.46 206.926L168.623 199.815L166.735 210.227L159.894 202.154L156.662 212.231L150.933 203.333L146.415 212.903L141.896 203.333L136.167 212.231L132.936 202.154L126.094 210.227L124.206 199.815L116.369 206.926L115.856 196.356L107.158 202.384L108.03 191.838L98.6193 196.679L100.86 186.336L90.898 189.907L94.4694 179.945L84.1266 182.186L88.9677 172.775L78.421 173.647L84.4489 164.949L73.8787 164.436L80.9904 156.599L70.5776 154.711L78.6514 147.87L68.574 144.638L77.4717 138.909L67.9023 134.391L77.4717 129.872L68.574 124.143L78.6514 120.912L70.5776 114.07L80.9904 112.182L73.8787 104.345L84.4489 103.832L78.421 95.1345L88.9677 96.006L84.1266 86.5954L94.4694 88.8359L90.898 78.8741L100.86 82.4455L98.6193 72.1027L108.03 76.9438L107.158 66.397L115.856 72.425L116.369 61.8548L124.206 68.9665L126.094 58.5537L132.936 66.6274L136.167 56.5501L141.896 65.4478L146.415 55.8784Z" fill="#FF0420"/>
</g>
<g clip-path="url(#clip1_1064_1851)">
<path fill-rule="evenodd" clip-rule="evenodd" d="M138.656 123.781C139.37 123.781 139.949 124.363 139.949 125.081C139.949 128.671 142.844 131.582 146.415 131.582C149.986 131.582 152.88 128.671 152.88 125.081C152.88 124.363 153.459 123.781 154.173 123.781C154.888 123.781 155.466 124.363 155.466 125.081C155.466 130.108 151.414 134.182 146.415 134.182C141.415 134.182 137.363 130.108 137.363 125.081C137.363 124.363 137.942 123.781 138.656 123.781Z" fill="white"/>
<path d="M123.139 109.966L124.001 112.165C124.763 114.108 126.29 115.645 128.217 116.409L130.412 117.28L128.217 118.15C126.29 118.914 124.763 120.451 124.001 122.394L123.139 124.593L122.276 122.394C121.514 120.451 119.987 118.914 118.06 118.15L115.865 117.28L118.06 116.409C119.987 115.645 121.514 114.108 122.276 112.165L123.139 109.966Z" fill="white"/>
<path d="M169.691 109.966L170.554 112.165C171.315 114.108 172.842 115.645 174.77 116.409L176.965 117.28L174.77 118.15C172.842 118.914 171.315 120.451 170.554 122.394L169.691 124.593L168.828 122.394C168.066 120.451 166.539 118.914 164.612 118.15L162.417 117.28L164.612 116.409C166.539 115.645 168.066 114.108 168.828 112.165L169.691 109.966Z" fill="white"/>
</g>
<defs>
<clipPath id="clip0_1064_1851">
<rect width="157.024" height="157.024" fill="white" transform="translate(67.9023 55.8784)"/>
</clipPath>
<clipPath id="clip1_1064_1851">
<rect width="66.4878" height="26.878" fill="white" transform="translate(113.171 107.512)"/>
</clipPath>
</defs>
</svg>
