<svg width="456" height="527" viewBox="0 0 456 527" fill="none" xmlns="http://www.w3.org/2000/svg">
<circle cx="-24.5" cy="276.5" r="235.5" fill="url(#paint0_linear_1351_2573)"/>
<g clip-path="url(#clip0_1351_2573)">
<g style="mix-blend-mode:screen">
<path d="M106 140.659C133.978 140.659 156.659 117.978 156.659 90C156.659 62.022 133.978 39.3413 106 39.3413C78.022 39.3413 55.3413 62.022 55.3413 90C55.3413 117.978 78.022 140.659 106 140.659Z" fill="url(#paint1_radial_1351_2573)"/>
</g>
<g style="mix-blend-mode:screen">
<path d="M109.871 90C109.871 139.728 108.156 180 106 180C103.844 180 102.13 139.679 102.13 90C102.13 40.3212 103.844 0 106 0C108.156 0 109.871 40.3212 109.871 90Z" fill="url(#paint2_radial_1351_2573)"/>
</g>
<g style="mix-blend-mode:screen">
<path d="M106 93.8703C155.706 93.8703 196 92.1374 196 89.9998C196 87.8623 155.706 86.1294 106 86.1294C56.2944 86.1294 16 87.8623 16 89.9998C16 92.1374 56.2944 93.8703 106 93.8703Z" fill="url(#paint3_radial_1351_2573)"/>
</g>
</g>
<g clip-path="url(#clip1_1351_2573)">
<g style="mix-blend-mode:screen">
<path d="M358 487.659C385.978 487.659 408.659 464.978 408.659 437C408.659 409.022 385.978 386.341 358 386.341C330.022 386.341 307.341 409.022 307.341 437C307.341 464.978 330.022 487.659 358 487.659Z" fill="url(#paint4_radial_1351_2573)"/>
</g>
<g style="mix-blend-mode:screen">
<path d="M361.87 437C361.87 486.728 360.156 527 358 527C355.844 527 354.129 486.679 354.129 437C354.129 387.321 355.844 347 358 347C360.156 347 361.87 387.321 361.87 437Z" fill="url(#paint5_radial_1351_2573)"/>
</g>
<g style="mix-blend-mode:screen">
<path d="M358 440.87C407.706 440.87 448 439.137 448 437C448 434.862 407.706 433.129 358 433.129C308.294 433.129 268 434.862 268 437C268 439.137 308.294 440.87 358 440.87Z" fill="url(#paint6_radial_1351_2573)"/>
</g>
</g>
<defs>
<linearGradient id="paint0_linear_1351_2573" x1="-24.5" y1="41" x2="116" y2="304" gradientUnits="userSpaceOnUse">
<stop stop-color="white"/>
<stop offset="1" stop-color="white" stop-opacity="0"/>
</linearGradient>
<radialGradient id="paint1_radial_1351_2573" cx="0" cy="0" r="1" gradientUnits="userSpaceOnUse" gradientTransform="translate(106 90) scale(50.6587)">
<stop stop-color="white"/>
<stop offset="0.18" stop-color="#C3C3C3" stop-opacity="0.76"/>
<stop offset="0.4" stop-color="#7E7E7E" stop-opacity="0.5"/>
<stop offset="0.6" stop-color="#484848" stop-opacity="0.28"/>
<stop offset="0.78" stop-color="#202020" stop-opacity="0.13"/>
<stop offset="0.92" stop-color="#080808" stop-opacity="0.03"/>
<stop offset="1" stop-opacity="0"/>
</radialGradient>
<radialGradient id="paint2_radial_1351_2573" cx="0" cy="0" r="1" gradientUnits="userSpaceOnUse" gradientTransform="translate(162.179 106.717) scale(4.05269 90.1725)">
<stop stop-color="white"/>
<stop offset="0.18" stop-color="#C3C3C3" stop-opacity="0.76"/>
<stop offset="0.4" stop-color="#7E7E7E" stop-opacity="0.5"/>
<stop offset="0.6" stop-color="#484848" stop-opacity="0.28"/>
<stop offset="0.78" stop-color="#202020" stop-opacity="0.13"/>
<stop offset="0.92" stop-color="#080808" stop-opacity="0.03"/>
<stop offset="1" stop-opacity="0"/>
</radialGradient>
<radialGradient id="paint3_radial_1351_2573" cx="0" cy="0" r="1" gradientUnits="userSpaceOnUse" gradientTransform="translate(110.614 802.096) rotate(90) scale(4.05269 90.1725)">
<stop stop-color="white"/>
<stop offset="0.18" stop-color="#C3C3C3" stop-opacity="0.76"/>
<stop offset="0.4" stop-color="#7E7E7E" stop-opacity="0.5"/>
<stop offset="0.6" stop-color="#484848" stop-opacity="0.28"/>
<stop offset="0.78" stop-color="#202020" stop-opacity="0.13"/>
<stop offset="0.92" stop-color="#080808" stop-opacity="0.03"/>
<stop offset="1" stop-opacity="0"/>
</radialGradient>
<radialGradient id="paint4_radial_1351_2573" cx="0" cy="0" r="1" gradientUnits="userSpaceOnUse" gradientTransform="translate(358 437) scale(50.6587)">
<stop stop-color="white"/>
<stop offset="0.18" stop-color="#C3C3C3" stop-opacity="0.76"/>
<stop offset="0.4" stop-color="#7E7E7E" stop-opacity="0.5"/>
<stop offset="0.6" stop-color="#484848" stop-opacity="0.28"/>
<stop offset="0.78" stop-color="#202020" stop-opacity="0.13"/>
<stop offset="0.92" stop-color="#080808" stop-opacity="0.03"/>
<stop offset="1" stop-opacity="0"/>
</radialGradient>
<radialGradient id="paint5_radial_1351_2573" cx="0" cy="0" r="1" gradientUnits="userSpaceOnUse" gradientTransform="translate(414.179 453.717) scale(4.05269 90.1725)">
<stop stop-color="white"/>
<stop offset="0.18" stop-color="#C3C3C3" stop-opacity="0.76"/>
<stop offset="0.4" stop-color="#7E7E7E" stop-opacity="0.5"/>
<stop offset="0.6" stop-color="#484848" stop-opacity="0.28"/>
<stop offset="0.78" stop-color="#202020" stop-opacity="0.13"/>
<stop offset="0.92" stop-color="#080808" stop-opacity="0.03"/>
<stop offset="1" stop-opacity="0"/>
</radialGradient>
<radialGradient id="paint6_radial_1351_2573" cx="0" cy="0" r="1" gradientUnits="userSpaceOnUse" gradientTransform="translate(362.614 1149.1) rotate(90) scale(4.05269 90.1725)">
<stop stop-color="white"/>
<stop offset="0.18" stop-color="#C3C3C3" stop-opacity="0.76"/>
<stop offset="0.4" stop-color="#7E7E7E" stop-opacity="0.5"/>
<stop offset="0.6" stop-color="#484848" stop-opacity="0.28"/>
<stop offset="0.78" stop-color="#202020" stop-opacity="0.13"/>
<stop offset="0.92" stop-color="#080808" stop-opacity="0.03"/>
<stop offset="1" stop-opacity="0"/>
</radialGradient>
<clipPath id="clip0_1351_2573">
<rect width="180" height="180" fill="white" transform="translate(16)"/>
</clipPath>
<clipPath id="clip1_1351_2573">
<rect width="180" height="180" fill="white" transform="translate(276 347)"/>
</clipPath>
</defs>
</svg>
