<svg  viewBox="0 0 1099 765" fill="none" xmlns="http://www.w3.org/2000/svg">
<path opacity="0.5" d="M979.143 487.49C960.362 549.403 902.839 593.4 824.869 614.416C746.907 635.43 648.582 633.438 548.383 603.429C448.183 573.42 365.128 521.09 311.839 460.768C258.544 400.439 235.072 332.185 253.853 270.272C272.634 208.358 330.157 164.361 408.127 143.345C486.089 122.332 584.414 124.324 684.614 154.333C784.813 184.341 867.868 236.672 921.157 296.994C974.452 357.322 997.924 425.577 979.143 487.49Z" stroke="white"/>
<path d="M1035.36 513.31C1011.91 590.614 941.954 646.079 847.682 673.205C753.416 700.329 634.899 699.089 514.487 663.027C394.074 626.964 294.609 562.92 231.13 488.553C167.646 414.181 140.194 329.543 163.644 252.239C187.094 174.935 257.046 119.47 351.318 92.3441C445.584 65.2204 564.101 66.4598 684.513 102.522C804.926 138.585 904.391 202.629 967.87 276.996C1031.35 351.368 1058.81 436.006 1035.36 513.31Z" stroke="white"/>
<path opacity="0.4" d="M1047.81 517.039C1023.69 596.541 951.744 653.578 854.781 681.469C757.824 709.358 635.924 708.077 512.073 670.984C388.222 633.892 285.914 568.024 220.617 491.542C155.317 415.055 127.075 328.011 151.191 248.51C175.307 169.008 247.256 111.97 344.219 84.0798C441.176 56.1909 563.076 57.472 686.927 94.5644C810.778 131.657 913.086 197.524 978.383 274.006C1043.68 350.493 1071.93 437.538 1047.81 517.039Z" stroke="white"/>
<path opacity="0.4" d="M1087.85 544.007C1058.92 639.379 972.538 707.767 856.126 741.178C739.719 774.587 593.356 772.997 444.64 728.457C295.923 683.918 173.055 604.876 94.6188 513.113C16.1785 421.345 -17.7839 316.914 11.1467 221.542C40.0772 126.171 126.463 57.7833 242.876 24.3724C359.282 -9.03688 505.645 -7.4467 654.362 37.0927C803.078 81.6321 925.946 160.674 1004.38 252.437C1082.82 344.205 1116.79 448.636 1087.85 544.007Z" stroke="white"/>
</svg>
