<svg width="1594" height="400" viewBox="0 0 1594 400" fill="none" xmlns="http://www.w3.org/2000/svg">
<path d="M531.995 167.764C531.995 179.447 529.313 190.174 523.95 199.942C518.587 209.519 510.351 217.277 499.241 223.214C488.132 229.152 474.341 232.121 457.869 232.121H427.414V304.523H378.283V102.831H457.869C473.958 102.831 487.557 105.609 498.667 111.163C509.776 116.718 518.108 124.38 523.663 134.148C529.217 143.917 531.995 155.122 531.995 167.764ZM454.134 193.047C463.519 193.047 470.51 190.844 475.107 186.439C479.704 182.033 482.003 175.808 482.003 167.764C482.003 159.719 479.704 153.494 475.107 149.088C470.51 144.683 463.519 142.48 454.134 142.48H427.414V193.047H454.134ZM544.93 224.076C544.93 207.604 547.995 193.143 554.124 180.692C560.445 168.242 568.969 158.665 579.695 151.961C590.421 145.257 602.393 141.906 615.609 141.906C626.91 141.906 636.774 144.204 645.202 148.801C653.821 153.398 660.429 159.431 665.026 166.902V144.204H714.157V304.523H665.026V281.826C660.238 289.296 653.534 295.329 644.915 299.926C636.487 304.523 626.622 306.822 615.322 306.822C602.297 306.822 590.421 303.47 579.695 296.766C568.969 289.871 560.445 280.198 554.124 267.748C547.995 255.106 544.93 240.549 544.93 224.076ZM665.026 224.364C665.026 212.105 661.579 202.432 654.683 195.345C647.979 188.258 639.743 184.715 629.974 184.715C620.206 184.715 611.874 188.258 604.978 195.345C598.274 202.241 594.923 211.818 594.923 224.076C594.923 236.335 598.274 246.104 604.978 253.382C611.874 260.469 620.206 264.013 629.974 264.013C639.743 264.013 647.979 260.469 654.683 253.382C661.579 246.295 665.026 236.622 665.026 224.364ZM771.536 127.54C762.916 127.54 755.829 125.05 750.275 120.07C744.911 114.898 742.23 108.577 742.23 101.107C742.23 93.4458 744.911 87.125 750.275 82.1449C755.829 76.9733 762.916 74.3875 771.536 74.3875C779.963 74.3875 786.859 76.9733 792.222 82.1449C797.777 87.125 800.554 93.4458 800.554 101.107C800.554 108.577 797.777 114.898 792.222 120.07C786.859 125.05 779.963 127.54 771.536 127.54ZM795.957 144.204V304.523H746.827V144.204H795.957ZM877.818 170.924C883.564 162.113 890.747 155.218 899.366 150.238C907.986 145.066 917.563 142.48 928.098 142.48V194.483H914.594C902.335 194.483 893.141 197.165 887.012 202.528C880.883 207.7 877.818 216.894 877.818 230.11V304.523H828.688V144.204H877.818V170.924ZM1178.84 144.204L1135.46 304.523H1081.16L1055.87 200.517L1029.73 304.523H975.715L932.044 144.204H981.174L1003.87 258.841L1030.88 144.204H1082.88L1110.18 258.266L1132.59 144.204H1178.84ZM1219.41 127.54C1210.8 127.54 1203.71 125.05 1198.15 120.07C1192.79 114.898 1190.11 108.577 1190.11 101.107C1190.11 93.4458 1192.79 87.125 1198.15 82.1449C1203.71 76.9733 1210.8 74.3875 1219.41 74.3875C1227.84 74.3875 1234.74 76.9733 1240.1 82.1449C1245.66 87.125 1248.43 93.4458 1248.43 101.107C1248.43 108.577 1245.66 114.898 1240.1 120.07C1234.74 125.05 1227.84 127.54 1219.41 127.54ZM1243.84 144.204V304.523H1194.71V144.204H1243.84ZM1341.79 306.822C1327.8 306.822 1315.35 304.428 1304.44 299.639C1293.52 294.851 1284.9 288.338 1278.58 280.102C1272.26 271.674 1268.71 262.289 1267.95 251.946H1316.5C1317.08 257.5 1319.66 262.001 1324.26 265.449C1328.86 268.897 1334.51 270.621 1341.21 270.621C1347.34 270.621 1352.03 269.472 1355.29 267.173C1358.74 264.683 1360.46 261.523 1360.46 257.692C1360.46 253.095 1358.07 249.743 1353.28 247.636C1348.49 245.337 1340.73 242.847 1330.01 240.166C1318.51 237.484 1308.94 234.707 1301.28 231.834C1293.61 228.769 1287.01 224.076 1281.45 217.756C1275.9 211.243 1273.12 202.528 1273.12 191.61C1273.12 182.416 1275.61 174.084 1280.59 166.614C1285.76 158.953 1293.23 152.919 1303 148.514C1312.96 144.108 1324.74 141.906 1338.34 141.906C1358.45 141.906 1374.25 146.886 1385.75 156.846C1397.43 166.806 1404.13 180.022 1405.86 196.495H1360.46C1359.7 190.94 1357.21 186.534 1352.99 183.278C1348.97 180.022 1343.61 178.394 1336.9 178.394C1331.16 178.394 1326.75 179.543 1323.69 181.842C1320.62 183.949 1319.09 186.918 1319.09 190.748C1319.09 195.345 1321.48 198.793 1326.27 201.092C1331.25 203.39 1338.91 205.689 1349.26 207.987C1361.13 211.052 1370.81 214.116 1378.28 217.181C1385.75 220.054 1392.26 224.843 1397.81 231.547C1403.56 238.059 1406.53 246.87 1406.72 257.979C1406.72 267.365 1404.04 275.792 1398.67 283.262C1393.5 290.541 1385.94 296.287 1375.98 300.501C1366.21 304.715 1354.81 306.822 1341.79 306.822ZM1585.03 221.778C1585.03 226.375 1584.74 231.163 1584.17 236.143H1472.98C1473.74 246.104 1476.9 253.765 1482.46 259.128C1488.21 264.3 1495.2 266.886 1503.43 266.886C1515.69 266.886 1524.21 261.714 1529 251.371H1581.29C1578.61 261.906 1573.73 271.387 1566.64 279.815C1559.75 288.242 1551.03 294.851 1540.5 299.639C1529.96 304.428 1518.18 306.822 1505.16 306.822C1489.45 306.822 1475.47 303.47 1463.21 296.766C1450.95 290.062 1441.37 280.485 1434.48 268.035C1427.58 255.585 1424.14 241.028 1424.14 224.364C1424.14 207.7 1427.49 193.143 1434.19 180.692C1441.09 168.242 1450.66 158.665 1462.92 151.961C1475.18 145.257 1489.26 141.906 1505.16 141.906C1520.67 141.906 1534.46 145.162 1546.53 151.674C1558.6 158.186 1567.98 167.476 1574.69 179.543C1581.58 191.61 1585.03 205.689 1585.03 221.778ZM1534.75 208.849C1534.75 200.421 1531.88 193.717 1526.13 188.737C1520.38 183.757 1513.2 181.267 1504.58 181.267C1496.35 181.267 1489.35 183.661 1483.61 188.45C1478.05 193.238 1474.61 200.038 1473.27 208.849H1534.75Z" fill="#232323"/>
<g filter="url(#filter0_d_2550_2995)">
<rect x="65" y="57" width="175.724" height="225.931" rx="8.09509" fill="#B1AFF8"/>
</g>
<g opacity="0.5" filter="url(#filter1_d_2550_2995)">
<rect x="103.802" y="100.361" width="175.724" height="225.931" rx="8.09509" fill="#6A67E7"/>
</g>
<defs>
<filter id="filter0_d_2550_2995" x="0.239243" y="0.334337" width="305.245" height="355.451" filterUnits="userSpaceOnUse" color-interpolation-filters="sRGB">
<feFlood flood-opacity="0" result="BackgroundImageFix"/>
<feColorMatrix in="SourceAlpha" type="matrix" values="0 0 0 0 0 0 0 0 0 0 0 0 0 0 0 0 0 0 127 0" result="hardAlpha"/>
<feOffset dy="8.09509"/>
<feGaussianBlur stdDeviation="32.3804"/>
<feComposite in2="hardAlpha" operator="out"/>
<feColorMatrix type="matrix" values="0 0 0 0 0 0 0 0 0 0 0 0 0 0 0 0 0 0 0.08 0"/>
<feBlend mode="normal" in2="BackgroundImageFix" result="effect1_dropShadow_2550_2995"/>
<feBlend mode="normal" in="SourceGraphic" in2="effect1_dropShadow_2550_2995" result="shape"/>
</filter>
<filter id="filter1_d_2550_2995" x="39.0415" y="43.6957" width="305.245" height="355.453" filterUnits="userSpaceOnUse" color-interpolation-filters="sRGB">
<feFlood flood-opacity="0" result="BackgroundImageFix"/>
<feColorMatrix in="SourceAlpha" type="matrix" values="0 0 0 0 0 0 0 0 0 0 0 0 0 0 0 0 0 0 127 0" result="hardAlpha"/>
<feOffset dy="8.09509"/>
<feGaussianBlur stdDeviation="32.3804"/>
<feComposite in2="hardAlpha" operator="out"/>
<feColorMatrix type="matrix" values="0 0 0 0 0 0 0 0 0 0 0 0 0 0 0 0 0 0 0.08 0"/>
<feBlend mode="normal" in2="BackgroundImageFix" result="effect1_dropShadow_2550_2995"/>
<feBlend mode="normal" in="SourceGraphic" in2="effect1_dropShadow_2550_2995" result="shape"/>
</filter>
</defs>
</svg>
