
<svg width="364" height="584" viewBox="0 0 364 584" fill="none" xmlns="http://www.w3.org/2000/svg">
<circle cx="450.5" cy="235.5" r="235.5" fill="url(#paint0_linear_1351_2572)"/>
<g opacity="0.4">
<g clip-path="url(#clip0_1351_2572)">
<path d="M261 507.734C281.435 507.734 298 491.169 298 470.734C298 450.3 281.435 433.734 261 433.734C240.565 433.734 224 450.3 224 470.734C224 491.169 240.565 507.734 261 507.734Z" fill="url(#paint1_radial_1351_2572)"/>
<path opacity="0.6" d="M262.416 488.662C272.317 488.662 280.344 480.635 280.344 470.734C280.344 460.833 272.317 452.807 262.416 452.807C252.515 452.807 244.489 460.833 244.489 470.734C244.489 480.635 252.515 488.662 262.416 488.662Z" fill="url(#paint2_radial_1351_2572)"/>
</g>
</g>
<defs>
<linearGradient id="paint0_linear_1351_2572" x1="450.5" y1="6.51181e-06" x2="232" y2="327" gradientUnits="userSpaceOnUse">
<stop stop-color="white"/>
<stop offset="1" stop-color="white" stop-opacity="0"/>
</linearGradient>
<radialGradient id="paint1_radial_1351_2572" cx="0" cy="0" r="1" gradientUnits="userSpaceOnUse" gradientTransform="translate(261 470.734) scale(37)">
<stop stop-color="white" stop-opacity="0.9"/>
<stop offset="0.645833" stop-color="white" stop-opacity="0"/>
<stop offset="1" stop-color="white" stop-opacity="0"/>
</radialGradient>
<radialGradient id="paint2_radial_1351_2572" cx="0" cy="0" r="1" gradientUnits="userSpaceOnUse" gradientTransform="translate(262.416 470.734) scale(17.9275)">
<stop stop-color="white" stop-opacity="0.9"/>
<stop offset="0.557292" stop-color="white" stop-opacity="0"/>
</radialGradient>
<clipPath id="clip0_1351_2572">
<rect width="74" height="74" fill="white" transform="translate(224 433.734)"/>
</clipPath>
</defs>
</svg>
