<svg  viewBox="0 0 1289 1016" fill="none" xmlns="http://www.w3.org/2000/svg">
<path opacity="0.5" d="M1074.14 612.49C1055.36 674.403 997.839 718.4 919.869 739.416C841.907 760.43 743.581 758.438 643.382 728.429C543.183 698.42 460.127 646.09 406.838 585.768C353.544 525.439 330.072 457.185 348.853 395.272C367.634 333.358 425.157 289.361 503.127 268.345C581.089 247.332 679.414 249.324 779.613 279.333C879.813 309.341 962.868 361.672 1016.16 421.994C1069.45 482.322 1092.92 550.577 1074.14 612.49Z" stroke="white"/>
<path d="M1130.36 638.31C1106.91 715.614 1036.95 771.079 942.682 798.205C848.415 825.329 729.899 824.089 609.487 788.027C489.074 751.964 389.609 687.92 326.13 613.553C262.646 539.181 235.194 454.543 258.644 377.239C282.093 299.935 352.045 244.47 446.318 217.344C540.584 190.22 659.1 191.46 779.513 227.522C899.925 263.585 999.39 327.629 1062.87 401.996C1126.35 476.368 1153.81 561.006 1130.36 638.31Z" stroke="white"/>
<path opacity="0.4" d="M1142.81 642.039C1118.69 721.541 1046.74 778.578 949.781 806.469C852.824 834.358 730.924 833.077 607.073 795.984C483.221 758.892 380.913 693.024 315.617 616.542C250.317 540.055 222.074 453.011 246.191 373.51C270.307 294.008 342.256 236.97 439.219 209.08C536.175 181.191 658.075 182.472 781.927 219.564C905.778 256.657 1008.09 322.524 1073.38 399.006C1138.68 475.493 1166.93 562.538 1142.81 642.039Z" stroke="white"/>
<path opacity="0.4" d="M1182.85 669.007C1153.92 764.379 1067.54 832.767 951.125 866.178C834.719 899.587 688.356 897.997 539.639 853.457C390.923 808.918 268.055 729.876 189.618 638.113C111.178 546.345 77.2157 441.914 106.146 346.542C135.077 251.171 221.463 182.783 337.875 149.372C454.282 115.963 600.645 117.553 749.361 162.093C898.078 206.632 1020.95 285.674 1099.38 377.437C1177.82 469.205 1211.78 573.636 1182.85 669.007Z" stroke="white"/>
<path fill-rule="evenodd" clip-rule="evenodd" d="M897.586 499.01C896.694 498.121 762.526 498.272 761.117 499.164C760.468 499.573 760.08 500.646 760.254 501.548C760.561 503.135 762.722 503.186 829.133 503.186C897.489 503.186 897.695 503.181 897.949 501.407C898.09 500.428 897.926 499.35 897.586 499.01ZM895.745 446.314C895.165 444.653 892.552 444.972 880.528 448.174C868.446 451.391 867.557 451.752 867.557 453.45C867.557 456.55 869.837 456.639 879.904 453.934C896.176 449.561 896.779 449.271 895.745 446.314ZM889.614 551.267C889.253 551.049 884.287 549.621 878.577 548.094C869.669 545.711 868.023 545.491 866.971 546.541C864.459 549.047 866.604 550.443 877.303 553.268C883.082 554.793 888.364 555.831 889.04 555.572C890.327 555.078 890.744 551.949 889.614 551.267ZM869.959 571.866C868.017 570.399 844.927 561.147 843.205 561.147C841.121 561.147 840.261 563.177 841.629 564.867C843.105 566.692 868.198 576.87 869.753 576.275C871.333 575.67 871.458 572.999 869.959 571.866ZM868.721 427.503C867.391 426.175 863.53 427.442 844.408 435.476C827.306 442.661 824.274 444.21 824.037 445.882C823.878 446.998 824.299 448.055 825.011 448.328C826.206 448.785 865.933 432.923 868.212 431.078C869.402 430.115 869.643 428.422 868.721 427.503ZM866 598.386C865.175 597.654 850.741 589.13 833.925 579.445C817.109 569.759 793.327 556.049 781.075 548.98C751.797 532.083 753.219 532.786 751.583 534.417C750.857 535.142 750.467 536.256 750.717 536.893C751.183 538.078 863.294 602.984 864.874 602.984C865.355 602.984 866.142 602.249 866.625 601.351C867.287 600.116 867.134 599.392 866 598.386ZM864.718 476.816C863.143 475.559 761.024 489.085 760.007 490.685C757.125 495.222 758.764 495.146 811.672 488.278C839.286 484.694 862.764 481.394 863.844 480.944C866.011 480.042 866.409 478.165 864.718 476.816ZM865.009 521.534C864.567 521.262 854.053 519.691 841.641 518.042C793.449 511.639 764.681 507.98 762.535 507.98C759.963 507.98 758.605 510.382 760.296 511.94C761.588 513.13 863.564 526.694 864.923 525.855C866.028 525.174 866.087 522.199 865.009 521.534ZM858.166 404.377C856.961 403.732 845.679 409.876 804.8 433.437C776.289 449.869 752.344 463.93 751.589 464.685C750.429 465.842 750.397 466.276 751.389 467.467C752.034 468.244 753.199 468.714 753.975 468.51C755.42 468.134 856.628 409.998 858.603 408.41C860.153 407.164 859.954 405.332 858.166 404.377ZM843.573 458.87C842.009 458.272 760.115 479.943 758.549 481.37C757.001 482.78 758.159 485.318 760.35 485.318C761.339 485.318 766.703 484.109 772.267 482.631C822.813 469.205 841.203 464.229 842.879 463.522C845.081 462.594 845.526 459.618 843.573 458.87ZM843.753 538.897C842.758 538.528 822.251 533.019 776.868 520.932C761.196 516.758 759.892 516.54 758.554 517.874C757.291 519.135 757.271 519.466 758.395 520.583C759.098 521.283 775.201 526.005 794.179 531.075C813.156 536.146 831.7 541.118 835.387 542.124C839.075 543.13 842.71 543.715 843.468 543.425C845.104 542.799 845.313 539.477 843.753 538.897ZM834.143 606.206C821.305 595.842 805.869 584.656 804.712 584.876C803.963 585.018 803.23 585.973 803.084 586.999C802.835 588.73 809.394 594.184 834.033 612.735C835.483 613.827 837.856 612.623 837.856 610.794C837.856 609.918 836.186 607.854 834.143 606.206ZM787.653 592.525C762.995 567.921 742.865 548.509 742.009 548.509C736.96 548.509 740.224 552.194 783.826 595.725C827.492 639.318 830.731 642.179 831.526 637.848C831.664 637.098 812.93 617.746 787.653 592.525ZM818.463 375.671C817.887 375.096 816.998 374.625 816.488 374.625C815.979 374.625 808.746 381.434 800.415 389.757C785.228 404.928 783.342 407.67 787.541 408.477C788.708 408.701 793.553 404.435 804.346 393.679C812.687 385.367 819.512 378.15 819.512 377.642C819.512 377.133 819.04 376.247 818.463 375.671ZM816.236 549.505C809.7 546.164 757.906 525.372 756.698 525.604C755.9 525.758 755.306 526.737 755.306 527.901C755.306 529.745 758.066 531.075 785.599 542.485C802.775 549.603 816.487 554.812 817.266 554.514C819.444 553.68 818.862 550.848 816.236 549.505ZM812.818 409.707C812.576 409.108 811.643 408.618 810.746 408.618C809.171 408.618 749.843 453.235 746.832 456.683C745.048 458.727 745.667 460.914 748.028 460.914C749.718 460.914 813.46 412.589 813.328 411.409C813.29 411.072 813.06 410.307 812.818 409.707ZM802.506 357.519C801.801 357.25 800.86 357.164 800.414 357.329C798.711 357.96 733.03 444.348 733.03 445.958C733.03 448.07 735.049 448.93 736.793 447.562C737.515 446.996 749.853 431.236 764.211 412.54C778.568 393.844 793.346 374.612 797.052 369.8C803.768 361.079 804.935 358.449 802.506 357.519ZM799.003 455.376C797.606 454.841 757.835 470.805 755.841 472.701C754.241 474.223 755.227 476.602 757.458 476.602C758.982 476.602 793.922 462.511 798.625 460C800.602 458.945 800.836 456.078 799.003 455.376ZM763.312 588.389C742.735 561.678 736.579 554.23 735.214 554.397C730.975 554.915 733.042 558.179 758.822 591.653C773.035 610.109 785.163 625.714 785.772 626.332C787.317 627.895 789.826 626.712 789.737 624.463C789.696 623.427 777.924 607.357 763.312 588.389ZM768.66 555.918C758.966 548.487 750.307 542.046 749.42 541.604C747.022 540.41 744.498 543.056 746.146 545.038C747.225 546.335 758.564 555.187 776.488 568.725C783.806 574.252 786.331 574.913 786.302 571.295C786.29 569.902 781.815 566 768.66 555.918ZM779.272 645.323C773.355 635.316 772.308 634.094 770.311 634.858C768.024 635.734 768.5 637.407 773.634 646.534C779.615 657.167 781.244 659.222 783.123 658.503C785.555 657.572 784.617 654.36 779.272 645.323ZM771.876 365.571C771.142 364.839 770.026 364.438 769.394 364.68C768.027 365.203 725.898 437.74 725.374 440.473C724.876 443.068 727.628 444.064 729.566 441.99C730.713 440.761 768.024 376.723 772.206 368.802C773.006 367.287 772.94 366.633 771.876 365.571ZM767.039 673.148C765.175 668.833 754.224 642.589 742.704 614.827C731.183 587.066 721.283 564.059 720.703 563.702C719.409 562.905 717.582 563.529 717.033 564.96C716.808 565.544 719.477 572.868 722.964 581.234C726.451 589.602 737.433 616.058 747.368 640.027C757.303 663.996 765.984 684.161 766.658 684.839C767.663 685.849 768.128 685.87 769.239 684.951C771.134 683.38 770.887 682.052 767.039 673.148ZM764.769 429.246C763.161 427.641 760.52 429.54 750.706 439.354C739.748 450.315 737.582 453.941 741.997 453.941C743.364 453.941 747.278 450.637 754.664 443.252C764.496 433.416 766.36 430.833 764.769 429.246ZM761.421 336.591C760.7 336.314 759.588 336.288 758.95 336.533C757.369 337.138 746.931 362.955 747.583 364.648C747.879 365.419 748.894 365.888 749.939 365.738C751.398 365.528 752.886 362.88 757.19 352.836C762.966 339.355 763.48 337.379 761.421 336.591ZM744.024 584.677C731.732 563.389 729.394 559.84 727.656 559.84C726.481 559.84 725.514 560.434 725.356 561.253C725.119 562.479 751.868 609.829 754.09 612.117C754.963 613.016 757.587 611.844 758.094 610.327C758.243 609.88 751.912 598.338 744.024 584.677ZM743.606 381.731C743.199 381.084 742.127 380.696 741.224 380.869C740.002 381.102 737.722 385.636 732.307 398.604C716.688 436.005 716.391 436.817 717.802 438.237C718.71 439.151 719.484 439.279 720.445 438.673C721.193 438.202 726.686 426.075 732.651 411.724C745.163 381.627 744.568 383.257 743.606 381.731ZM735.064 350.439C734.426 348.831 731.469 349.116 730.533 350.874C730.085 351.714 728.532 356.91 727.08 362.423C722.186 380.999 710.214 425.58 709.001 429.742C707.959 433.318 707.971 434.042 709.084 435.153C710.871 436.936 712.695 435.984 713.731 432.728C714.429 430.537 733.925 357.893 735.173 352.836C735.35 352.116 735.301 351.038 735.064 350.439ZM733.049 640.899C731.695 636.105 727.173 619.435 723.001 603.856C712.388 564.228 713.063 566.377 711.236 566.377C710.369 566.377 709.268 566.868 708.79 567.466C707.745 568.779 729.77 651.732 731.437 652.76C732.758 653.574 735.675 652.106 735.581 650.674C735.543 650.091 734.403 645.692 733.049 640.899ZM715.531 653.537C714.638 647.065 713.669 640.138 713.381 638.143C712.813 634.224 710.795 632.64 708.846 634.585C707.88 635.55 708.051 638.511 709.868 652.216C711.069 661.276 712.406 669.042 712.839 669.475C714.318 670.95 716.864 669.73 717.014 667.474C717.093 666.28 716.426 660.008 715.531 653.537ZM712.306 362.261C711.412 361.52 710.627 361.48 709.606 362.122C708.449 362.851 707.263 369.851 703.56 397.807C699.378 429.383 699.083 432.682 700.353 433.616C702.415 435.134 704.095 434.092 704.61 430.977C704.861 429.465 706.837 414.501 709.002 397.723C711.168 380.945 713.081 366.337 713.254 365.261C713.426 364.185 713 362.835 712.306 362.261ZM707.678 594.191C705.92 580.966 704.199 569.689 703.854 569.132C703.114 567.938 700.148 567.781 699.455 568.9C698.837 569.899 704.886 616.717 705.971 619.327C706.943 621.665 709.088 621.89 710.129 619.762C710.59 618.819 709.654 609.056 707.678 594.191ZM681.887 399.902C679.821 384.801 678.101 372.348 678.064 372.229C677.824 371.451 673.74 372.216 673.415 373.1C673.034 374.136 680.255 431.388 681.055 433.676C681.265 434.276 682.431 434.766 683.648 434.766C685.683 434.766 685.85 434.472 685.751 431.061C685.692 429.024 683.952 415.002 681.887 399.902ZM685.276 569.573C684.138 568.437 681.601 569.015 681.139 570.517C680.224 573.484 670.062 652.237 670.315 654.396C670.513 656.084 671.073 656.587 672.755 656.587L674.939 656.587L680.336 616.058C685.863 574.559 686.286 570.58 685.276 569.573ZM665.837 391.622C655.074 351.858 654.687 350.657 652.626 350.657C651.366 350.657 650.393 351.229 650.232 352.064C649.872 353.931 671.551 434.624 672.823 436.155C674.111 437.704 677.164 436.197 677.023 434.081C676.969 433.26 671.935 414.152 665.837 391.622ZM675.813 567.564C675.092 567.288 673.989 567.259 673.361 567.499C672.105 567.98 672.224 567.582 662.714 602.984C659.043 616.646 653.303 638.004 649.959 650.445C646.614 662.886 644.073 673.575 644.313 674.196C645.026 676.054 648.259 675.5 649.169 673.366C650.163 671.033 677.123 570.393 677.123 569.016C677.123 568.493 676.533 567.839 675.813 567.564ZM674.909 346.734C674.277 342.66 673.731 339.228 673.694 339.108C673.459 338.33 669.371 339.096 669.04 339.979C668.423 341.624 670.91 358.315 671.921 359.325C673.255 360.655 675.791 358.702 675.934 356.234C676.001 355.084 675.539 350.809 674.909 346.734ZM666.76 432.587C665.914 430.669 654.85 404.097 642.174 373.536C621.467 323.613 618.93 317.972 617.187 317.972C614.485 317.972 614.216 319.492 616.073 324.262C617.479 327.872 658.997 428.112 662.679 436.783C663.789 439.398 664.502 440.049 666.02 439.833C668.498 439.482 668.743 437.083 666.76 432.587ZM667.089 564.644C665.907 563.665 665.479 563.676 664.438 564.715C662.646 566.502 641.151 618.527 641.487 620.265C641.653 621.126 642.594 621.723 643.786 621.723C645.607 621.723 646.863 619.177 656.686 595.575C662.672 581.194 667.779 568.614 668.035 567.62C668.312 566.543 667.93 565.34 667.089 564.644ZM654.201 430.262C650.784 424.35 644.371 413.237 639.952 405.567C633.146 393.757 631.6 391.622 629.854 391.622C628.659 391.622 627.678 392.207 627.523 393.014C627.245 394.45 654.672 442.566 656.362 443.608C657.597 444.369 659.399 443.655 659.966 442.179C660.213 441.537 657.619 436.174 654.201 430.262ZM659.947 561.365C659.186 559.483 656.347 560.176 654.589 562.673C653.661 563.991 651.343 567.815 649.437 571.171C647.532 574.526 638.437 590.281 629.226 606.179C620.017 622.078 612.48 635.665 612.48 636.374C612.48 638.436 615.247 638.968 616.924 637.228C618.212 635.893 660.648 563.192 660.457 562.65C660.419 562.543 660.189 561.965 659.947 561.365ZM626.222 411.233C604.089 382.441 599.405 376.804 597.613 376.804C596.402 376.804 595.361 377.373 595.219 378.112C595.081 378.831 606.876 394.912 621.43 413.847C643.634 442.736 648.239 448.275 650.047 448.275C651.273 448.275 652.308 447.712 652.446 446.968C652.579 446.249 640.779 430.168 626.222 411.233ZM651.235 555.315C650.448 555.015 649.258 555.125 648.588 555.561C646.197 557.116 581.031 642.667 581.26 643.949C581.393 644.693 582.418 645.257 583.637 645.257C585.425 645.257 589.703 640.165 609.395 614.607C650.757 560.922 652.664 558.388 652.664 557.114C652.664 556.426 652.021 555.617 651.235 555.315ZM606.941 412.508C581.999 387.644 567.449 373.754 566.344 373.754C560.888 373.754 563.217 376.452 602.613 415.788C641.882 454.995 644.646 457.381 645.518 452.819C645.726 451.734 634.025 439.507 606.941 412.508ZM645.093 549.526C644.773 549.206 643.883 548.945 643.115 548.945C641.51 548.945 619.469 570.661 619.469 572.242C619.469 572.817 620.288 573.725 621.288 574.261C622.927 575.135 624.237 574.118 634.392 564.092C644.724 553.892 646.731 551.161 645.093 549.526ZM637.651 456.659C629.704 449.877 602.137 429.548 600.879 429.543C598.332 429.532 598.05 432.097 600.347 434.365C601.495 435.499 609.903 442.137 619.032 449.117C635.374 461.612 638.718 463.378 639.389 459.867C639.545 459.051 638.763 457.608 637.651 456.659ZM638.978 542.554C638.658 542.234 637.846 541.972 637.174 541.972C635.644 541.972 573.164 589.786 572.525 591.445C572.268 592.113 572.675 593.276 573.43 594.028C575.032 595.628 571.589 598.032 612.309 566.89C637.65 547.51 640.939 544.509 638.978 542.554ZM636.347 637.473C634.109 636.616 633.107 638.201 627.84 650.922C622.331 664.227 621.908 666.611 625.053 666.611C626.203 666.611 627.347 666.121 627.595 665.521C627.844 664.922 630.245 659.186 632.93 652.774C638.187 640.223 638.608 638.339 636.347 637.473ZM628.474 461.947C575.832 431.309 521.906 400.76 520.827 400.965C520.068 401.109 519.329 402.049 519.185 403.053C518.977 404.496 520.172 405.617 524.863 408.381C530.044 411.434 561.957 429.845 615.492 460.665C624.115 465.63 631.781 469.576 632.526 469.433C633.272 469.292 634.004 468.328 634.152 467.292C634.37 465.776 633.263 464.734 628.474 461.947ZM632.923 534.652C631.916 534.266 622.948 538.983 605.142 549.266C590.681 557.617 567.449 571.01 553.516 579.028C539.583 587.046 527.691 593.999 527.091 594.48C525.616 595.659 525.706 598.569 527.234 599.154C528.437 599.614 536.961 594.842 602.435 557.058C626.589 543.118 633.944 538.482 634.147 537.066C634.306 535.955 633.819 534.995 632.923 534.652ZM630.247 527.373C630.004 526.774 629.117 526.283 628.274 526.283C626.138 526.283 587.025 542.593 585.491 544.122C584.466 545.147 584.442 545.615 585.364 546.722C585.982 547.465 586.86 548.073 587.314 548.073C588.559 548.073 628.475 531.498 629.733 530.458C630.888 529.504 630.953 529.119 630.247 527.373ZM627.986 472.32C626.904 471.906 613.585 466.425 598.385 460.14C583.184 453.854 569.96 448.711 568.995 448.711C567.017 448.711 566 450.492 567.029 452.154C567.942 453.628 627.461 478.211 628.859 477.693C630.765 476.986 630.14 473.145 627.986 472.32ZM624.542 481.093C622.953 480.593 603.814 475.424 582.01 469.605C547.952 460.515 542.195 459.197 541.139 460.25C538.523 462.861 540.766 464.122 554.657 467.849C611.713 483.159 623.609 486.223 625.147 486.003C626.166 485.858 627.006 484.972 627.162 483.877C627.371 482.416 626.79 481.799 624.542 481.093ZM626.094 517.911C624.275 517.214 542.514 539.084 540.881 540.703C539.757 541.817 539.78 542.15 541.063 543.431C542.431 544.794 544.814 544.279 577.721 535.501C631.55 521.144 626.855 522.581 627.174 520.37C627.339 519.221 626.899 518.219 626.094 517.911ZM624.514 490.863C623.926 490.5 600.438 487.167 572.319 483.457C529.167 477.763 521.006 476.896 519.983 477.897C518.378 479.467 519.316 481.675 521.812 482.205C522.914 482.438 540.522 484.796 560.941 487.445C581.36 490.093 603.767 493.008 610.733 493.922C623.43 495.587 625.584 495.405 625.584 492.672C625.584 492.039 625.102 491.225 624.514 490.863ZM624.21 509.143C623.383 508.825 613.035 509.811 601.214 511.331C550.505 517.853 521.672 521.797 520.809 522.33C519.673 523.03 519.589 525.998 520.686 526.675C521.69 527.294 622.046 514.286 623.837 513.305C625.738 512.263 625.958 509.812 624.21 509.143ZM623.679 499.688C623.045 499.447 592.258 499.35 555.263 499.475L488 499.7L488 501.879L488 504.058L556.136 504.058L624.273 504.058L624.553 502.093C624.707 501.012 624.314 499.93 623.679 499.688ZM611 355.45C604.102 343.516 603.037 342.521 600.857 345.97C600.247 346.935 601.583 349.98 605.931 357.537C609.178 363.179 612.378 368.002 613.042 368.257C614.213 368.705 616.877 367.128 616.82 366.021C616.805 365.719 614.186 360.963 611 355.45ZM599.668 594.849C598.009 593.193 595.044 595.524 581.154 609.4C565.925 624.614 563.988 627.444 568.376 628.075C569.628 628.255 574.327 624.096 585.183 613.201C599.066 599.267 601.282 596.459 599.668 594.849ZM580.844 413.237C579.747 412.224 572.61 406.631 564.986 400.808C551.059 390.172 547.401 388.431 547.401 392.435C547.401 394.686 578.095 418.333 580.587 418.001C583.058 417.672 583.181 415.394 580.844 413.237ZM560.286 555.187C559.15 554.597 553.305 556.653 537.574 563.172C518.819 570.943 516.39 572.175 516.39 573.906C516.39 574.981 516.793 576.11 517.285 576.413C518.094 576.913 550.61 564.077 558.539 560.128C562.063 558.374 562.74 556.459 560.286 555.187ZM543.252 437.64C541.31 436.172 518.219 426.921 516.497 426.921C514.406 426.921 513.332 429.491 514.829 430.912C515.447 431.5 521.812 434.369 528.973 437.29C538.917 441.346 542.27 442.37 543.168 441.627C544.641 440.408 544.676 438.717 543.252 437.64ZM518.355 452.782C517.995 452.566 513.043 451.154 507.35 449.645C499.33 447.517 496.723 447.127 495.775 447.912C494.386 449.062 494.3 449.581 495.246 451.067C496.113 452.429 515.962 457.778 517.691 457.116C519.047 456.597 519.525 453.479 518.355 452.782ZM516.681 547.783C515.638 546.742 513.113 547.156 502.019 550.19C489.559 553.598 489.31 553.709 489.31 555.876C489.31 558.478 491.367 558.556 499.956 556.284C516.258 551.97 517.264 551.602 517.264 549.938C517.264 549.072 517.001 548.102 516.681 547.783Z" fill="white"/>
<g clip-path="url(#clip0_929_1420)">
<path d="M695 384L701.388 397.529L709.488 384.95L714.056 399.197L723.729 387.782L726.398 402.504L737.478 392.449L738.202 407.393L750.5 398.871L749.268 413.782L762.572 406.938L759.405 421.56L773.488 416.511L768.439 430.595L783.062 427.427L776.218 440.732L791.128 439.5L782.606 451.797L797.55 452.522L787.496 463.602L802.217 466.271L790.803 475.944L805.05 480.512L792.47 488.611L806 495L792.47 501.389L805.05 509.488L790.803 514.056L802.217 523.729L787.496 526.398L797.55 537.478L782.606 538.203L791.128 550.5L776.218 549.268L783.062 562.572L768.439 559.405L773.488 573.489L759.405 568.44L762.572 583.062L749.268 576.218L750.5 591.129L738.202 582.607L737.478 597.551L726.398 587.496L723.729 602.218L714.056 590.803L709.488 605.05L701.388 592.471L695 606L688.611 592.471L680.511 605.05L675.943 590.803L666.271 602.218L663.602 587.496L652.522 597.551L651.797 582.607L639.5 591.129L640.732 576.218L627.427 583.062L630.595 568.44L616.511 573.489L621.56 559.405L606.937 562.572L613.782 549.268L598.871 550.5L607.393 538.203L592.449 537.478L602.504 526.398L587.782 523.729L599.197 514.056L584.949 509.488L597.529 501.389L584 495L597.529 488.611L584.949 480.512L599.197 475.944L587.782 466.271L602.504 463.602L592.449 452.522L607.393 451.797L598.871 439.5L613.782 440.732L606.937 427.427L621.56 430.595L616.511 416.511L630.595 421.56L627.427 406.938L640.732 413.782L639.5 398.871L651.797 407.393L652.522 392.449L663.602 402.504L666.271 387.782L675.943 399.197L680.511 384.95L688.611 397.529L695 384Z" fill="#FF0420"/>
</g>
<path fill-rule="evenodd" clip-rule="evenodd" d="M684.03 480C685.04 480 685.859 480.823 685.859 481.838C685.859 486.914 689.951 491.029 695 491.029C700.048 491.029 704.141 486.914 704.141 481.838C704.141 480.823 704.959 480 705.969 480C706.979 480 707.797 480.823 707.797 481.838C707.797 488.945 702.067 494.706 695 494.706C687.932 494.706 682.202 488.945 682.202 481.838C682.202 480.823 683.021 480 684.03 480Z" fill="white"/>
<path d="M662.092 460.469L663.311 463.578C664.389 466.325 666.547 468.498 669.272 469.578L672.375 470.809L669.272 472.04C666.547 473.12 664.389 475.293 663.311 478.04L662.092 481.149L660.872 478.04C659.795 475.293 657.636 473.12 654.912 472.04L651.808 470.809L654.912 469.578C657.636 468.498 659.795 466.325 660.872 463.578L662.092 460.469Z" fill="white"/>
<path d="M727.907 460.469L729.127 463.578C730.204 466.325 732.363 468.498 735.088 469.578L738.191 470.809L735.088 472.04C732.363 473.12 730.204 475.293 729.127 478.04L727.907 481.149L726.688 478.04C725.61 475.293 723.452 473.12 720.727 472.04L717.624 470.809L720.727 469.578C723.452 468.498 725.61 466.325 726.688 463.578L727.907 460.469Z" fill="white"/>
<path d="M106.074 211.802C105.613 209.544 102.386 209.544 101.925 211.802L98.9427 226.393C98.8861 226.67 98.6695 226.887 98.3925 226.943L83.802 229.925C81.5439 230.387 81.5439 233.613 83.802 234.075L98.3925 237.057C98.6695 237.114 98.8861 237.33 98.9427 237.607L101.925 252.198C102.386 254.456 105.613 254.456 106.074 252.198L109.057 237.607C109.113 237.33 109.33 237.114 109.607 237.057L124.197 234.075C126.455 233.613 126.455 230.387 124.197 229.925L109.607 226.943C109.33 226.887 109.113 226.67 109.057 226.393L106.074 211.802Z" fill="url(#paint0_radial_929_1420)" stroke="#202327"/>
<path d="M315.012 832.772C314.676 831.126 312.323 831.126 311.987 832.772L309.812 843.411C309.771 843.613 309.613 843.771 309.411 843.813L298.772 845.987C297.126 846.324 297.126 848.676 298.772 849.013L309.411 851.187C309.613 851.229 309.771 851.386 309.812 851.589L311.987 862.227C312.323 863.874 314.676 863.874 315.012 862.227L317.187 851.589C317.228 851.386 317.386 851.229 317.588 851.187L328.227 849.013C329.874 848.676 329.874 846.324 328.227 845.987L317.588 843.813C317.386 843.771 317.228 843.613 317.187 843.411L315.012 832.772Z" fill="url(#paint1_radial_929_1420)" stroke="#202327"/>
<circle opacity="0.4" cx="759.5" cy="816.5" r="42.5" fill="#297AFF"/>
<path opacity="0.6" d="M807.214 809.379C807.327 810.769 806.314 812.426 804.016 814.267C801.75 816.082 798.376 817.958 794.123 819.776C785.625 823.411 773.725 826.775 760.44 828.996C747.156 831.218 735.036 831.869 726.185 831.136C721.755 830.768 718.172 830.056 715.676 829.037C713.146 828.004 711.896 826.725 711.783 825.335C711.671 823.945 712.683 822.288 714.981 820.447C717.248 818.631 720.621 816.756 724.874 814.937C733.372 811.303 745.273 807.938 758.557 805.717C771.841 803.496 783.961 802.844 792.813 803.578C797.243 803.945 800.825 804.657 803.321 805.677C805.852 806.71 807.102 807.989 807.214 809.379Z" stroke="#297AFF"/>
<path opacity="0.6" d="M809.164 809.052C809.316 810.924 808.213 813.017 805.847 815.233C803.494 817.438 799.979 819.678 795.54 821.816C786.669 826.089 774.214 829.905 760.282 832.234C746.351 834.563 733.619 834.959 724.302 833.727C719.641 833.11 715.862 832.09 713.22 830.72C710.564 829.343 709.156 827.67 709.005 825.799C708.853 823.927 709.956 821.834 712.322 819.618C714.675 817.412 718.189 815.173 722.628 813.035C731.5 808.761 743.955 804.946 757.886 802.617C771.818 800.288 784.549 799.892 793.866 801.124C798.528 801.74 802.307 802.761 804.949 804.13C807.605 805.507 809.013 807.181 809.164 809.052Z" stroke="#297AFF"/>
<path opacity="0.6" d="M811.387 808.673C811.577 811.012 810.405 813.54 807.959 816.14C805.516 818.736 801.859 821.34 797.233 823.797C787.986 828.707 774.975 832.972 760.397 835.41C745.818 837.847 732.474 837.988 722.69 836.26C717.795 835.395 713.819 834.068 711.028 832.347C708.232 830.623 706.688 828.549 706.498 826.21C706.309 823.871 707.481 821.342 709.927 818.742C712.369 816.146 716.027 813.542 720.653 811.086C729.9 806.175 742.911 801.91 757.489 799.473C772.068 797.035 785.412 796.894 795.196 798.622C800.091 799.487 804.067 800.815 806.858 802.536C809.654 804.259 811.198 806.334 811.387 808.673Z" stroke="#297AFF"/>
<path opacity="0.6" d="M813.33 808.347C813.564 811.241 812.347 814.289 809.842 817.347C807.336 820.408 803.57 823.439 798.801 826.264C789.264 831.913 775.81 836.681 760.702 839.207C745.593 841.733 731.737 841.531 721.553 839.18C716.46 838.004 712.311 836.296 709.383 834.144C706.456 831.993 704.786 829.428 704.552 826.534C704.318 823.641 705.534 820.593 708.039 817.534C710.545 814.474 714.311 811.442 719.081 808.617C728.617 802.968 742.071 798.2 757.18 795.674C772.288 793.148 786.145 793.35 796.328 795.701C801.421 796.878 805.571 798.586 808.498 800.737C811.425 802.888 813.095 805.453 813.33 808.347Z" stroke="#297AFF"/>
<g filter="url(#filter0_d_929_1420)">
<circle cx="759.5" cy="816.5" r="35.5" fill="#297AFF"/>
</g>
<path d="M757.5 798.5C765.5 802 754.5 809.5 751 809C747.501 808.5 744.7 800.5 757.5 798.5Z" fill="#403BEB"/>
<path d="M724 816.5C724 836.106 739.894 852 759.5 852C769.251 852 778.084 848.069 784.5 841.704C790.916 835.34 762.172 841.61 748 833.5C739.231 828.482 724 803.5 724 816.5Z" fill="#403BEB"/>
<circle opacity="0.7" cx="700.5" cy="796.5" r="9.5" fill="#297AFF"/>
<circle opacity="0.7" cx="792" cy="777" r="3" fill="#297AFF"/>
<circle opacity="0.7" cx="782" cy="771" r="2" fill="#297AFF"/>
<circle opacity="0.7" cx="809" cy="842" r="5" fill="#297AFF"/>
<g opacity="0.6">
<circle opacity="0.4" cx="240" cy="682" r="25" fill="#262A31"/>
<circle opacity="0.6" cx="240" cy="682" r="28.5" stroke="#262A31"/>
<circle cx="240" cy="682" r="20" fill="#262A31"/>
<path d="M246.761 666.325C245.409 663.297 241.69 662.18 240 662C247.915 662 254.757 666.412 258 672.812C252.335 673.894 248.451 670.109 246.761 666.325Z" fill="#14171C"/>
<path d="M240 702C228.954 702 220 692.959 220 681.807C220.281 676.403 224.476 676.242 232.394 684.65C248.732 702 258.028 691.477 260 681.807C260 692.959 251.045 702 240 702Z" fill="#14171C"/>
</g>
<g opacity="0.6">
<circle opacity="0.7" cx="344.5" cy="422.5" r="9.5" fill="#262A31"/>
</g>
<g opacity="0.6">
<circle opacity="0.7" cx="106.5" cy="496.5" r="9.5" fill="#262A31"/>
<circle opacity="0.7" cx="118" cy="487" r="3" fill="#262A31"/>
<circle opacity="0.7" cx="91.9996" cy="495" r="2" fill="#262A31"/>
<circle opacity="0.7" cx="97.9996" cy="486" r="1" fill="#262A31"/>
<circle opacity="0.7" cx="123" cy="500" r="5" fill="#262A31"/>
</g>
<circle opacity="0.4" cx="526.5" cy="195.5" r="42.5" fill="#1C64F2"/>
<circle opacity="0.6" cx="526.5" cy="195.5" r="46" stroke="#1C64F2"/>
<g filter="url(#filter1_d_929_1420)">
<circle cx="526.5" cy="195.5" r="35.5" fill="#1C64F2"/>
</g>
<path d="M514.499 168C516.899 162.4 523.499 160.333 526.499 160C512.45 160 500.307 168.161 494.552 180C504.606 182 511.499 175 514.499 168Z" fill="#403BEB"/>
<path d="M526.5 231C546.106 231 562 215.106 562 195.5C561.5 185.999 548.5 187 538 208C531.562 220.876 506.019 224.5 491 195.5C491 215.106 506.894 231 526.5 231Z" fill="#403BEB"/>
<circle opacity="0.7" cx="470.5" cy="225.5" r="9.5" fill="#1C64F2"/>
<circle opacity="0.7" cx="561" cy="150" r="3" fill="#1C64F2"/>
<g opacity="0.6">
<circle opacity="0.4" cx="988" cy="272" r="31" fill="#262A31"/>
<circle cx="988" cy="272" r="23" fill="#262A31"/>
<path d="M988 295C1000.7 295 1011 284.612 1011 271.799C1010.68 265.59 1003.26 256.583 994.155 266.243C975.366 286.177 967.267 282.909 965 271.799C965 284.612 975.297 295 988 295Z" fill="#14171C"/>
</g>
<g opacity="0.6">
<circle opacity="0.4" cx="1064" cy="509" r="42" fill="#262A31"/>
<circle opacity="0.6" cx="1064" cy="509" r="45.5" stroke="#262A31"/>
<circle cx="1064" cy="509" r="35" fill="#262A31"/>
<path d="M1075.52 481.864C1073.12 476.359 1066.5 474.328 1063.5 474C1077.57 474 1089.73 482.021 1095.5 493.659C1085.43 495.625 1078.52 488.744 1075.52 481.864Z" fill="#14171C"/>
<path d="M1064 544C1044.67 544 1029 528.179 1029 508.662C1029.49 499.205 1036.83 498.924 1050.69 513.638C1079.28 543.999 1095.55 525.584 1099 508.662C1099 528.179 1083.33 544 1064 544Z" fill="#14171C"/>
</g>
<defs>
<filter id="filter0_d_929_1420" x="714" y="771" width="91" height="91" filterUnits="userSpaceOnUse" color-interpolation-filters="sRGB">
<feFlood flood-opacity="0" result="BackgroundImageFix"/>
<feColorMatrix in="SourceAlpha" type="matrix" values="0 0 0 0 0 0 0 0 0 0 0 0 0 0 0 0 0 0 127 0" result="hardAlpha"/>
<feOffset/>
<feGaussianBlur stdDeviation="5"/>
<feComposite in2="hardAlpha" operator="out"/>
<feColorMatrix type="matrix" values="0 0 0 0 0.00288194 0 0 0 0 0.132691 0 0 0 0 0.345833 0 0 0 0.56 0"/>
<feBlend mode="normal" in2="BackgroundImageFix" result="effect1_dropShadow_929_1420"/>
<feBlend mode="normal" in="SourceGraphic" in2="effect1_dropShadow_929_1420" result="shape"/>
</filter>
<filter id="filter1_d_929_1420" x="481" y="150" width="91" height="91" filterUnits="userSpaceOnUse" color-interpolation-filters="sRGB">
<feFlood flood-opacity="0" result="BackgroundImageFix"/>
<feColorMatrix in="SourceAlpha" type="matrix" values="0 0 0 0 0 0 0 0 0 0 0 0 0 0 0 0 0 0 127 0" result="hardAlpha"/>
<feOffset/>
<feGaussianBlur stdDeviation="5"/>
<feComposite in2="hardAlpha" operator="out"/>
<feColorMatrix type="matrix" values="0 0 0 0 0.00288194 0 0 0 0 0.132691 0 0 0 0 0.345833 0 0 0 0.56 0"/>
<feBlend mode="normal" in2="BackgroundImageFix" result="effect1_dropShadow_929_1420"/>
<feBlend mode="normal" in="SourceGraphic" in2="effect1_dropShadow_929_1420" result="shape"/>
</filter>
<radialGradient id="paint0_radial_929_1420" cx="0" cy="0" r="1" gradientUnits="userSpaceOnUse" gradientTransform="translate(77.1762 205.177) rotate(45) scale(75.8684 41453.8)">
<stop stop-color="#F3CF00"/>
<stop offset="1" stop-color="#FF0420"/>
</radialGradient>
<radialGradient id="paint1_radial_929_1420" cx="0" cy="0" r="1" gradientUnits="userSpaceOnUse" gradientTransform="translate(293.941 827.941) rotate(45) scale(55.3207 30226.7)">
<stop stop-color="#F3CF00"/>
<stop offset="1" stop-color="#FF0420"/>
</radialGradient>
<clipPath id="clip0_929_1420">
<rect width="222" height="222" fill="white" transform="translate(584 384)"/>
</clipPath>
</defs>
</svg>
