<svg width="250" height="148" viewBox="0 0 250 148" fill="none" xmlns="http://www.w3.org/2000/svg">
<path opacity="0.4" d="M128.658 96.1392C127.127 101.186 122.416 104.84 115.886 106.6C109.365 108.358 101.109 108.198 92.6739 105.671C84.2392 103.145 77.2688 98.7455 72.8115 93.6999C68.3482 88.6476 66.4541 83.0152 67.9851 77.9682C69.5161 72.9211 74.2273 69.267 80.757 67.507C87.2781 65.7493 95.5344 65.9098 103.969 68.4359C112.404 70.9621 119.374 75.3618 123.832 80.4074C128.295 85.4597 130.189 91.0921 128.658 96.1392Z" stroke="white"/>
<path d="M133.429 98.3299C131.499 104.691 125.724 109.315 117.815 111.591C109.912 113.865 99.9451 113.767 89.7981 110.729C79.6512 107.69 71.2901 102.298 65.9681 96.0632C60.642 89.8236 58.4008 82.7986 60.3304 76.4375C62.26 70.0764 68.035 65.4522 75.9441 63.1764C83.8473 60.9024 93.8143 60.9999 103.961 64.0388C114.108 67.0777 122.469 72.4694 127.791 78.7042C133.117 84.9438 135.359 91.9688 133.429 98.3299Z" stroke="white"/>
<path opacity="0.8" d="M138.27 99.7837C136.08 107.003 129.528 112.243 120.572 114.819C111.622 117.393 100.339 117.281 88.8557 113.842C77.3721 110.403 67.9065 104.301 61.8792 97.2408C55.8479 90.1762 53.3007 82.2116 55.4908 74.992C57.6808 67.7724 64.2333 62.5331 73.1891 59.957C82.1389 57.3827 93.4216 57.4946 104.905 60.9338C116.389 64.373 125.854 70.4751 131.882 77.5349C137.913 84.5995 140.46 92.5641 138.27 99.7837Z" stroke="white"/>
<path opacity="0.5" d="M143.548 100.824C141.014 109.176 133.431 115.225 123.085 118.194C112.745 121.162 99.7134 121.027 86.452 117.055C73.1905 113.084 62.2547 106.04 55.2875 97.8896C48.3163 89.7338 45.3599 80.5283 47.8933 72.1767C50.4268 63.825 58.0105 57.7762 68.3565 54.8068C78.6964 51.8392 91.7278 51.9741 104.989 55.9458C118.251 59.9175 129.186 66.9606 136.154 75.1115C143.125 83.2672 146.081 92.4727 143.548 100.824Z" stroke="white"/>
<circle opacity="0.7" cx="89.5" cy="113.5" r="4.5" fill="#297AFF"/>
<circle opacity="0.4" cx="147.5" cy="72.5" r="42.5" fill="#1C64F2"/>
<path opacity="0.6" d="M195.214 65.379C195.327 66.7691 194.315 68.426 192.016 70.267C189.75 72.0825 186.376 73.9576 182.124 75.7765C173.626 79.411 161.725 82.7753 148.441 84.9964C135.156 87.2175 123.036 87.8694 114.185 87.1357C109.755 86.7685 106.172 86.0564 103.677 85.0372C101.146 84.0036 99.8962 82.7248 99.7837 81.3348C99.6712 79.9447 100.684 78.2877 102.982 76.4467C105.248 74.6313 108.622 72.7561 112.875 70.9372C121.373 67.3027 133.273 63.9384 146.557 61.7173C159.842 59.4962 171.962 58.8443 180.813 59.5781C185.243 59.9453 188.826 60.6573 191.321 61.6766C193.852 62.7102 195.102 63.9889 195.214 65.379Z" stroke="#1C64F2"/>
<path opacity="0.6" d="M197.165 65.0521C197.316 66.9236 196.213 69.0167 193.848 71.2332C191.494 73.4383 187.98 75.678 183.541 77.8161C174.669 82.0893 162.214 85.9046 148.283 88.2338C134.352 90.5631 121.62 90.9589 112.303 89.7269C107.641 89.1105 103.863 88.0901 101.22 86.7203C98.5639 85.3434 97.1563 83.67 97.0049 81.7986C96.8535 79.9272 97.9564 77.834 100.322 75.6175C102.675 73.4124 106.19 71.1727 110.629 69.0346C119.5 64.7615 131.956 60.9462 145.887 58.6169C159.818 56.2876 172.55 55.8918 181.867 57.1238C186.529 57.7403 190.307 58.7606 192.949 60.1305C195.606 61.5074 197.013 63.1807 197.165 65.0521Z" stroke="#1C64F2"/>
<path opacity="0.6" d="M199.388 64.6726C199.577 67.0117 198.405 69.5402 195.959 72.14C193.517 74.736 189.859 77.3402 185.233 79.7966C175.986 84.707 162.976 88.9724 148.397 91.4099C133.818 93.8474 120.474 93.9885 110.69 92.26C105.795 91.3953 101.82 90.0675 99.0279 88.3466C96.2322 86.6233 94.6881 84.5489 94.4988 82.2098C94.3096 79.8707 95.4814 77.3422 97.9273 74.7424C100.37 72.1464 104.028 69.5423 108.653 67.0859C117.9 62.1754 130.911 57.91 145.49 55.4725C160.068 53.035 173.413 52.8939 183.197 54.6224C188.091 55.4871 192.067 56.8149 194.859 58.5358C197.654 60.2592 199.198 62.3336 199.388 64.6726Z" stroke="#1C64F2"/>
<path opacity="0.6" d="M201.33 64.3469C201.564 67.2406 200.348 70.2886 197.843 73.3475C195.337 76.4076 191.571 79.4391 186.801 82.2642C177.265 87.9129 163.81 92.6813 148.702 95.2074C133.594 97.7335 119.737 97.5313 109.554 95.1798C104.46 94.0037 100.311 92.2957 97.3833 90.144C94.4569 87.9932 92.7863 85.428 92.5522 82.5343C92.3181 79.6406 93.5346 76.5926 96.0396 73.5337C98.5456 70.4736 102.312 67.4421 107.081 64.617C116.617 58.9683 130.072 54.1999 145.18 51.6738C160.289 49.1477 174.145 49.3499 184.329 51.7015C189.422 52.8776 193.571 54.5856 196.499 56.7372C199.425 58.888 201.096 61.4533 201.33 64.3469Z" stroke="#1C64F2"/>
<g filter="url(#filter0_d_1938_18120)">
<circle cx="147.5" cy="72.5" r="35.5" fill="#1C64F2"/>
</g>
<path d="M145.501 54.5C153.501 57.9998 142.5 65.5 139.001 64.9998C135.501 64.4997 132.701 56.5 145.501 54.5Z" fill="#403BEB"/>
<path d="M112 72.5002C112 92.1063 127.894 108 147.5 108C157.251 108 166.084 104.069 172.5 97.7043C178.916 91.34 150.172 97.6103 136 89.5C127.231 84.4821 112 59.5 112 72.5002Z" fill="#403BEB"/>
<circle opacity="0.7" cx="88.5" cy="52.5" r="9.5" fill="#1C64F2"/>
<circle opacity="0.7" cx="180" cy="33" r="3" fill="#1C64F2"/>
<circle opacity="0.7" cx="170" cy="27" r="2" fill="#1C64F2"/>
<circle opacity="0.7" cx="197" cy="98" r="5" fill="#1C64F2"/>
<circle opacity="0.7" cx="50.5" cy="88.5" r="9.5" fill="#1C64F2"/>
<circle opacity="0.7" cx="62" cy="79" r="3" fill="#1C64F2"/>
<circle opacity="0.7" cx="36" cy="87" r="2" fill="#1C64F2"/>
<circle opacity="0.7" cx="42" cy="78" r="1" fill="#1C64F2"/>
<circle opacity="0.7" cx="67" cy="92" r="5" fill="#1C64F2"/>
<defs>
<filter id="filter0_d_1938_18120" x="102" y="27" width="91" height="91" filterUnits="userSpaceOnUse" color-interpolation-filters="sRGB">
<feFlood flood-opacity="0" result="BackgroundImageFix"/>
<feColorMatrix in="SourceAlpha" type="matrix" values="0 0 0 0 0 0 0 0 0 0 0 0 0 0 0 0 0 0 127 0" result="hardAlpha"/>
<feOffset/>
<feGaussianBlur stdDeviation="5"/>
<feComposite in2="hardAlpha" operator="out"/>
<feColorMatrix type="matrix" values="0 0 0 0 0.00288194 0 0 0 0 0.132691 0 0 0 0 0.345833 0 0 0 0.56 0"/>
<feBlend mode="normal" in2="BackgroundImageFix" result="effect1_dropShadow_1938_18120"/>
<feBlend mode="normal" in="SourceGraphic" in2="effect1_dropShadow_1938_18120" result="shape"/>
</filter>
</defs>
</svg>
