<svg width="140" height="140" viewBox="0 0 140 140" fill="none" xmlns="http://www.w3.org/2000/svg">
<circle opacity="0.4" cx="70.5" cy="72.5" r="42.5" fill="#262A31" fill-opacity="0.7"/>
<path opacity="0.6" d="M118.214 65.379C118.327 66.7691 117.315 68.426 115.016 70.267C112.75 72.0825 109.376 73.9576 105.124 75.7765C96.6256 79.411 84.7251 82.7753 71.4407 84.9964C58.1564 87.2175 46.0364 87.8694 37.1849 87.1357C32.7553 86.7685 29.1725 86.0564 26.6768 85.0372C24.146 84.0036 22.8962 82.7248 22.7837 81.3348C22.6712 79.9447 23.6836 78.2877 25.9818 76.4467C28.2482 74.6313 31.6217 72.7561 35.8745 70.9372C44.3726 67.3027 56.2731 63.9384 69.5575 61.7173C82.8418 59.4962 94.9617 58.8443 103.813 59.5781C108.243 59.9453 111.826 60.6573 114.321 61.6766C116.852 62.7102 118.102 63.9889 118.214 65.379Z" stroke="#262A31" stroke-opacity="0.7"/>
<path opacity="0.6" d="M120.165 65.0521C120.316 66.9236 119.213 69.0167 116.848 71.2332C114.494 73.4383 110.98 75.678 106.541 77.8161C97.6691 82.0893 85.214 85.9046 71.2828 88.2338C57.3515 90.5631 44.6198 90.9589 35.3027 89.7269C30.6409 89.1105 26.8626 88.0901 24.2201 86.7203C21.5639 85.3434 20.1563 83.67 20.0049 81.7986C19.8535 79.9272 20.9564 77.834 23.3219 75.6175C25.6752 73.4124 29.1898 71.1727 33.6287 69.0346C42.5005 64.7615 54.9555 60.9462 68.8868 58.6169C82.818 56.2876 95.5497 55.8918 104.867 57.1238C109.529 57.7403 113.307 58.7606 115.949 60.1305C118.606 61.5074 120.013 63.1807 120.165 65.0521Z" stroke="#262A31" stroke-opacity="0.7"/>
<path opacity="0.6" d="M122.388 64.6726C122.577 67.0117 121.405 69.5402 118.959 72.14C116.517 74.736 112.859 77.3402 108.233 79.7966C98.9862 84.707 85.9755 88.9724 71.3969 91.4099C56.8183 93.8474 43.474 93.9885 33.6899 92.26C28.7955 91.3953 24.8196 90.0675 22.0279 88.3466C19.2322 86.6233 17.6881 84.5489 17.4988 82.2098C17.3096 79.8707 18.4814 77.3422 20.9273 74.7424C23.3698 72.1464 27.0276 69.5423 31.6534 67.0859C40.9004 62.1754 53.911 57.91 68.4896 55.4725C83.0682 53.035 96.4125 52.8939 106.197 54.6224C111.091 55.4871 115.067 56.8149 117.859 58.5358C120.654 60.2592 122.198 62.3336 122.388 64.6726Z" stroke="#262A31" stroke-opacity="0.7"/>
<path opacity="0.6" d="M124.33 64.3469C124.564 67.2406 123.348 70.2886 120.843 73.3475C118.337 76.4076 114.571 79.4391 109.801 82.2642C100.265 87.9129 86.8104 92.6813 71.702 95.2074C56.5936 97.7335 42.7372 97.5313 32.5536 95.1798C27.4604 94.0037 23.311 92.2957 20.3833 90.144C17.4569 87.9932 15.7863 85.428 15.5522 82.5343C15.3181 79.6406 16.5346 76.5926 19.0396 73.5337C21.5456 70.4736 25.3116 67.4421 30.0811 64.617C39.6175 58.9683 53.0718 54.1999 68.1801 51.6738C83.2885 49.1477 97.1449 49.3499 107.329 51.7015C112.422 52.8776 116.571 54.5856 119.499 56.7372C122.425 58.888 124.096 61.4533 124.33 64.3469Z" stroke="#262A31" stroke-opacity="0.7"/>
<g filter="url(#filter0_d_1700_13014)">
<circle cx="70.5" cy="72.5" r="35.5" fill="#262A31" fill-opacity="0.7" shape-rendering="crispEdges"/>
</g>
<path d="M68.5007 54.5C76.5006 57.9998 65.5002 65.5 62.0006 64.9998C58.5011 64.4997 55.7007 56.5 68.5007 54.5Z" fill="#14171C" fill-opacity="0.4"/>
<path d="M35 72.5002C35 92.1063 50.8939 108 70.5 108C80.2511 108 89.084 104.069 95.5 97.7043C101.916 91.34 73.1724 97.6103 59 89.5C50.2315 84.4821 35 59.5 35 72.5002Z" fill="#14171C" fill-opacity="0.4"/>
<circle opacity="0.7" cx="11.5" cy="52.5" r="9.5" fill="#262A31" fill-opacity="0.7"/>
<circle opacity="0.7" cx="103" cy="33" r="3" fill="#262A31" fill-opacity="0.7"/>
<circle opacity="0.7" cx="93" cy="27" r="2" fill="#262A31" fill-opacity="0.7"/>
<circle opacity="0.7" cx="120" cy="98" r="5" fill="#262A31" fill-opacity="0.7"/>
<defs>
<filter id="filter0_d_1700_13014" x="25" y="27" width="91" height="91" filterUnits="userSpaceOnUse" color-interpolation-filters="sRGB">
<feFlood flood-opacity="0" result="BackgroundImageFix"/>
<feColorMatrix in="SourceAlpha" type="matrix" values="0 0 0 0 0 0 0 0 0 0 0 0 0 0 0 0 0 0 127 0" result="hardAlpha"/>
<feOffset/>
<feGaussianBlur stdDeviation="5"/>
<feComposite in2="hardAlpha" operator="out"/>
<feColorMatrix type="matrix" values="0 0 0 0 0.00288194 0 0 0 0 0.132691 0 0 0 0 0.345833 0 0 0 0.56 0"/>
<feBlend mode="normal" in2="BackgroundImageFix" result="effect1_dropShadow_1700_13014"/>
<feBlend mode="normal" in="SourceGraphic" in2="effect1_dropShadow_1700_13014" result="shape"/>
</filter>
</defs>
</svg>
