<svg width="135" height="135" viewBox="0 0 135 135" fill="none" xmlns="http://www.w3.org/2000/svg">
<circle opacity="0.4" cx="67.5" cy="67.5" r="42.5" fill="#1C64F2"/>
<circle opacity="0.6" cx="67.5" cy="67.5" r="46" stroke="#1C64F2"/>
<g filter="url(#filter0_d_1700_12728)">
<circle cx="67.5" cy="67.5" r="35.5" fill="#1C64F2"/>
</g>
<path d="M55.4992 40C57.8992 34.4 64.4992 32.3333 67.4992 32C53.4505 32 41.3077 40.1606 35.5527 52C45.6063 54 52.4992 47 55.4992 40Z" fill="#403BEB"/>
<path d="M67.5 103C87.1061 103 103 87.1057 103 67.4996C102.5 57.9995 89.5 58.9996 79 79.9997C72.5619 92.8759 47.0193 96.4995 32 67.4996C32 87.1057 47.8939 103 67.5 103Z" fill="#403BEB"/>
<circle opacity="0.7" cx="15.5" cy="28.5" r="9.5" fill="#1C64F2"/>
<circle opacity="0.7" cx="102" cy="22" r="3" fill="#1C64F2"/>
<defs>
<filter id="filter0_d_1700_12728" x="22" y="22" width="91" height="91" filterUnits="userSpaceOnUse" color-interpolation-filters="sRGB">
<feFlood flood-opacity="0" result="BackgroundImageFix"/>
<feColorMatrix in="SourceAlpha" type="matrix" values="0 0 0 0 0 0 0 0 0 0 0 0 0 0 0 0 0 0 127 0" result="hardAlpha"/>
<feOffset/>
<feGaussianBlur stdDeviation="5"/>
<feComposite in2="hardAlpha" operator="out"/>
<feColorMatrix type="matrix" values="0 0 0 0 0.00288194 0 0 0 0 0.132691 0 0 0 0 0.345833 0 0 0 0.56 0"/>
<feBlend mode="normal" in2="BackgroundImageFix" result="effect1_dropShadow_1700_12728"/>
<feBlend mode="normal" in="SourceGraphic" in2="effect1_dropShadow_1700_12728" result="shape"/>
</filter>
</defs>
</svg>
