<svg width="74" height="72" viewBox="0 0 74 72" fill="none" xmlns="http://www.w3.org/2000/svg">
<circle opacity="0.4" cx="37" cy="36" r="25" fill="#1C64F2"/>
<path opacity="0.6" d="M70.808 34.3255C70.8081 34.3255 70.8082 34.3262 70.8082 34.3277C70.808 34.3263 70.808 34.3256 70.808 34.3255ZM70.7568 34.3155C70.7781 34.3285 70.7936 34.339 70.8047 34.347C70.8021 34.3558 70.7977 34.3673 70.7903 34.3817C70.7567 34.4463 70.6771 34.5348 70.5223 34.6406C70.2136 34.8517 69.684 35.0802 68.9276 35.3172C67.4217 35.7889 65.1156 36.2647 62.1701 36.7151C56.285 37.615 47.9124 38.404 38.4487 38.8668C28.9851 39.3297 20.238 39.3779 13.7493 39.0832C10.5015 38.9357 7.83738 38.703 5.93885 38.3977C4.98514 38.2443 4.25567 38.0774 3.75377 37.906C3.50201 37.8201 3.33899 37.7435 3.24323 37.6851C3.22196 37.6722 3.20643 37.6617 3.19535 37.6536C3.19793 37.6448 3.20233 37.6333 3.2098 37.619C3.2434 37.5543 3.32299 37.4658 3.47781 37.36C3.78645 37.149 4.31606 36.9205 5.0725 36.6835C6.57832 36.2117 8.88442 35.7359 11.83 35.2855C17.715 34.3857 26.0877 33.5966 35.5513 33.1338C45.0149 32.6709 53.762 32.6227 60.2508 32.9174C63.4985 33.065 66.1627 33.2976 68.0612 33.6029C69.0149 33.7563 69.7444 33.9232 70.2463 34.0946C70.498 34.1806 70.6611 34.2572 70.7568 34.3155ZM3.171 37.6334C3.17106 37.6334 3.17177 37.6341 3.17293 37.6355C3.17151 37.6341 3.17093 37.6334 3.171 37.6334ZM3.19205 37.6751C3.19199 37.6751 3.19187 37.6744 3.19187 37.6729C3.19211 37.6744 3.19211 37.6751 3.19205 37.6751ZM70.8271 34.3651C70.8286 34.3665 70.8291 34.3672 70.8291 34.3672C70.829 34.3672 70.8283 34.3665 70.8271 34.3651Z" stroke="#1C64F2"/>
<path opacity="0.6" d="M70.0542 33.2449C70.0637 33.2559 70.1448 33.3777 69.8931 33.613C69.6604 33.8307 69.2153 34.0735 68.546 34.3331C67.2133 34.85 65.0861 35.398 62.3116 35.9424C56.7691 37.0299 48.7149 38.0894 39.4638 38.8605C30.2128 39.6316 21.5347 39.9668 14.9868 39.8871C11.7091 39.8472 8.98599 39.7035 7.00107 39.4631C6.0042 39.3424 5.22829 39.2013 4.677 39.049C4.08078 38.8843 3.95531 38.7663 3.94585 38.7553C3.9364 38.7443 3.85527 38.6225 4.10693 38.3872C4.33963 38.1696 4.78477 37.9267 5.45406 37.6671C6.78673 37.1502 8.91396 36.6022 11.6884 36.0578C17.2309 34.9703 25.2852 33.9109 34.5362 33.1397C43.7873 32.3686 52.4654 32.0334 59.0132 32.1131C62.291 32.153 65.0141 32.2968 66.999 32.5371C67.9958 32.6578 68.7718 32.799 69.323 32.9512C69.9193 33.1159 70.0447 33.234 70.0542 33.2449Z" stroke="#1C64F2"/>
<path opacity="0.6" d="M68.6443 31.9649C68.7438 32.0405 68.8368 32.1818 68.6928 32.41C68.5523 32.6326 68.2136 32.8886 67.6592 33.1707C66.5541 33.733 64.6742 34.3588 62.1469 35.0076C57.0992 36.3035 49.5483 37.6714 40.6907 38.8009C31.8331 39.9305 23.3682 40.605 16.8489 40.7841C13.5849 40.8739 10.8339 40.8386 8.77806 40.6794C7.74656 40.5995 6.92779 40.4912 6.32546 40.3633C5.7079 40.2322 5.45529 40.1113 5.35571 40.0357C5.25614 39.9602 5.16316 39.8189 5.30721 39.5906C5.44771 39.368 5.78636 39.1121 6.34082 38.83C7.4459 38.2677 9.32578 37.6419 11.8531 36.9931C16.9008 35.6972 24.4517 34.3292 33.3093 33.1997C42.1669 32.0701 50.6317 31.3957 57.151 31.2165C60.4151 31.1268 63.1661 31.162 65.2219 31.3212C66.2534 31.4011 67.0722 31.5095 67.6745 31.6373C68.2921 31.7684 68.5447 31.8894 68.6443 31.9649Z" stroke="#1C64F2"/>
<path opacity="0.6" d="M66.6936 30.7409C66.9008 30.8541 67.0372 31.0131 66.9899 31.2382C66.9425 31.4636 66.7138 31.7287 66.2837 32.0282C65.4249 32.6261 63.8257 33.3191 61.5902 34.0621C57.1258 35.5461 50.2086 37.2022 41.8951 38.6747C33.5816 40.1472 25.4729 41.1525 19.0922 41.5894C15.8971 41.8082 13.1651 41.8823 11.074 41.8069C10.0265 41.7692 9.17711 41.695 8.52965 41.5927C7.88334 41.4905 7.51349 41.3728 7.30626 41.2596C7.09903 41.1464 6.96261 40.9874 7.00994 40.7624C7.05736 40.5369 7.28601 40.2719 7.71615 39.9724C8.5749 39.3745 10.1742 38.6815 12.4097 37.9384C16.874 36.4544 23.7912 34.7983 32.1048 33.3258C40.4183 31.8533 48.5269 30.8481 54.9076 30.4111C58.1028 30.1923 60.8347 30.1182 62.9259 30.1936C63.9733 30.2314 64.8227 30.3055 65.4702 30.4079C66.1165 30.5101 66.4864 30.6277 66.6936 30.7409Z" stroke="#1C64F2"/>
<path opacity="0.6" d="M64.8049 29.8396C65.3928 30.0964 65.5424 30.5279 64.8662 31.1651C64.2097 31.7836 62.8496 32.5208 60.8705 33.329C56.9184 34.943 50.5825 36.8063 42.7958 38.5316C35.009 40.2569 27.277 41.5105 21.0819 42.1448C17.9796 42.4625 15.2954 42.6214 13.2018 42.6122C11.0449 42.6027 9.78298 42.4177 9.19504 42.1609C8.60711 41.9041 8.45749 41.4727 9.13376 40.8355C9.7902 40.2169 11.1503 39.4798 13.1294 38.6715C17.0816 37.0576 23.4174 35.1942 31.2042 33.4689C38.9909 31.7437 46.7229 30.49 52.918 29.8557C56.0204 29.5381 58.7045 29.3792 60.7982 29.3884C62.9551 29.3978 64.2169 29.5829 64.8049 29.8396Z" stroke="#1C64F2"/>
<g filter="url(#filter0_d_1700_12506)">
<circle cx="37" cy="36" r="20" fill="#1C64F2"/>
</g>
<path d="M32.3411 19.1235C36.0642 12.2761 54.8411 18.6235 56.4415 33.7121C58.0419 48.8007 28.6179 25.971 32.3411 19.1235Z" fill="#403BEB"/>
<circle opacity="0.7" cx="53" cy="62" r="2" fill="#1C64F2"/>
<path d="M30.2387 51.675C31.5909 54.7025 35.3097 55.8198 37 56C29.0844 56 22.2426 51.5882 19 45.1875C24.6646 44.1063 28.5484 47.8906 30.2387 51.675Z" fill="#403BEB"/>
<defs>
<filter id="filter0_d_1700_12506" x="7" y="6" width="60" height="60" filterUnits="userSpaceOnUse" color-interpolation-filters="sRGB">
<feFlood flood-opacity="0" result="BackgroundImageFix"/>
<feColorMatrix in="SourceAlpha" type="matrix" values="0 0 0 0 0 0 0 0 0 0 0 0 0 0 0 0 0 0 127 0" result="hardAlpha"/>
<feOffset/>
<feGaussianBlur stdDeviation="5"/>
<feComposite in2="hardAlpha" operator="out"/>
<feColorMatrix type="matrix" values="0 0 0 0 0.00288194 0 0 0 0 0.132691 0 0 0 0 0.345833 0 0 0 0.56 0"/>
<feBlend mode="normal" in2="BackgroundImageFix" result="effect1_dropShadow_1700_12506"/>
<feBlend mode="normal" in="SourceGraphic" in2="effect1_dropShadow_1700_12506" result="shape"/>
</filter>
</defs>
</svg>
