<svg width="74" height="72" viewBox="0 0 74 72" fill="none" xmlns="http://www.w3.org/2000/svg">
<circle opacity="0.4" cx="37" cy="36" r="25" fill="#262A31" fill-opacity="0.7"/>
<path opacity="0.6" d="M70.808 34.3255C70.8081 34.3255 70.8082 34.3262 70.8082 34.3277C70.808 34.3263 70.808 34.3256 70.808 34.3255ZM70.7568 34.3155C70.7781 34.3285 70.7936 34.339 70.8047 34.347C70.8021 34.3558 70.7977 34.3673 70.7903 34.3817C70.7567 34.4463 70.6771 34.5348 70.5223 34.6406C70.2136 34.8517 69.684 35.0802 68.9276 35.3172C67.4217 35.7889 65.1156 36.2647 62.1701 36.7151C56.285 37.615 47.9124 38.404 38.4487 38.8668C28.9851 39.3297 20.238 39.3779 13.7493 39.0832C10.5015 38.9357 7.83738 38.703 5.93885 38.3977C4.98514 38.2443 4.25567 38.0774 3.75377 37.906C3.50201 37.8201 3.33899 37.7435 3.24323 37.6851C3.22196 37.6722 3.20643 37.6617 3.19535 37.6536C3.19793 37.6448 3.20233 37.6333 3.2098 37.619C3.2434 37.5543 3.32299 37.4658 3.47781 37.36C3.78645 37.149 4.31606 36.9205 5.0725 36.6835C6.57832 36.2117 8.88442 35.7359 11.83 35.2855C17.715 34.3857 26.0877 33.5966 35.5513 33.1338C45.0149 32.6709 53.762 32.6227 60.2508 32.9174C63.4985 33.065 66.1627 33.2976 68.0612 33.6029C69.0149 33.7563 69.7444 33.9232 70.2463 34.0946C70.498 34.1806 70.6611 34.2572 70.7568 34.3155ZM3.171 37.6334C3.17106 37.6334 3.17177 37.6341 3.17293 37.6355C3.17151 37.6341 3.17093 37.6334 3.171 37.6334ZM3.19205 37.6751C3.19199 37.6751 3.19187 37.6744 3.19187 37.6729C3.19211 37.6744 3.19211 37.6751 3.19205 37.6751ZM70.8271 34.3651C70.8286 34.3665 70.8291 34.3672 70.8291 34.3672C70.829 34.3672 70.8283 34.3665 70.8271 34.3651Z" stroke="#262A31" stroke-opacity="0.7"/>
<path opacity="0.6" d="M70.054 33.2449C70.0634 33.2559 70.1445 33.3777 69.8929 33.613C69.6602 33.8307 69.215 34.0735 68.5457 34.3331C67.2131 34.85 65.0858 35.398 62.3114 35.9424C56.7689 37.0299 48.7146 38.0894 39.4636 38.8605C30.2125 39.6316 21.5345 39.9668 14.9866 39.8871C11.7088 39.8472 8.98574 39.7035 7.00082 39.4631C6.00396 39.3424 5.22805 39.2013 4.67675 39.049C4.08054 38.8843 3.95506 38.7663 3.94561 38.7553C3.93615 38.7443 3.85503 38.6225 4.10669 38.3872C4.33939 38.1696 4.78453 37.9267 5.45382 37.6671C6.78649 37.1502 8.91372 36.6022 11.6882 36.0578C17.2307 34.9703 25.2849 33.9109 34.536 33.1397C43.7871 32.3686 52.4651 32.0334 59.013 32.1131C62.2908 32.153 65.0138 32.2968 66.9987 32.5371C67.9956 32.6578 68.7715 32.799 69.3228 32.9512C69.919 33.1159 70.0445 33.234 70.054 33.2449Z" stroke="#262A31" stroke-opacity="0.7"/>
<path opacity="0.6" d="M68.644 31.9649C68.7436 32.0405 68.8366 32.1818 68.6925 32.41C68.552 32.6326 68.2134 32.8886 67.6589 33.1707C66.5538 33.733 64.674 34.3588 62.1467 35.0076C57.099 36.3035 49.548 37.6714 40.6904 38.8009C31.8328 39.9305 23.368 40.605 16.8487 40.7841C13.5846 40.8739 10.8337 40.8386 8.77781 40.6794C7.74631 40.5995 6.92755 40.4912 6.32521 40.3633C5.70765 40.2322 5.45505 40.1113 5.35547 40.0357C5.25589 39.9602 5.16292 39.8189 5.30697 39.5906C5.44747 39.368 5.78612 39.1121 6.34058 38.83C7.44565 38.2677 9.32554 37.6419 11.8528 36.9931C16.9005 35.6972 24.4515 34.3292 33.3091 33.1997C42.1667 32.0701 50.6315 31.3957 57.1508 31.2165C60.4149 31.1268 63.1658 31.162 65.2217 31.3212C66.2532 31.4011 67.0719 31.5095 67.6743 31.6373C68.2918 31.7684 68.5445 31.8894 68.644 31.9649Z" stroke="#262A31" stroke-opacity="0.7"/>
<path opacity="0.6" d="M66.6936 30.7409C66.9008 30.8541 67.0372 31.0131 66.9899 31.2382C66.9425 31.4636 66.7138 31.7287 66.2837 32.0282C65.4249 32.6261 63.8257 33.3191 61.5902 34.0621C57.1258 35.5461 50.2086 37.2022 41.8951 38.6747C33.5816 40.1472 25.4729 41.1525 19.0922 41.5894C15.8971 41.8082 13.1651 41.8823 11.074 41.8069C10.0265 41.7692 9.17711 41.695 8.52965 41.5927C7.88334 41.4905 7.51349 41.3728 7.30626 41.2596C7.09903 41.1464 6.96261 40.9874 7.00994 40.7624C7.05736 40.5369 7.28601 40.2719 7.71615 39.9724C8.5749 39.3745 10.1742 38.6815 12.4097 37.9384C16.874 36.4544 23.7912 34.7983 32.1048 33.3258C40.4183 31.8533 48.5269 30.8481 54.9076 30.4111C58.1028 30.1923 60.8347 30.1182 62.9259 30.1936C63.9733 30.2314 64.8227 30.3055 65.4702 30.4079C66.1165 30.5101 66.4864 30.6277 66.6936 30.7409Z" stroke="#262A31" stroke-opacity="0.7"/>
<path opacity="0.6" d="M64.8051 29.8396C65.3931 30.0964 65.5427 30.5279 64.8664 31.1651C64.21 31.7836 62.8499 32.5208 60.8708 33.329C56.9186 34.943 50.5827 36.8063 42.796 38.5316C35.0093 40.2569 27.2773 41.5105 21.0821 42.1448C17.9798 42.4625 15.2957 42.6214 13.202 42.6122C11.0451 42.6027 9.78323 42.4177 9.19529 42.1609C8.60735 41.9041 8.45773 41.4727 9.134 40.8355C9.79045 40.2169 11.1505 39.4798 13.1296 38.6715C17.0818 37.0576 23.4177 35.1942 31.2044 33.4689C38.9911 31.7437 46.7231 30.49 52.9183 29.8557C56.0206 29.5381 58.7047 29.3792 60.7984 29.3884C62.9553 29.3978 64.2172 29.5829 64.8051 29.8396Z" stroke="#262A31" stroke-opacity="0.7"/>
<g filter="url(#filter0_d_1700_12945)">
<circle cx="37" cy="36" r="20" fill="#262A31" fill-opacity="0.7" shape-rendering="crispEdges"/>
</g>
<path d="M32.3408 19.1235C36.064 12.2761 54.8408 18.6235 56.4412 33.7121C58.0417 48.8007 28.6177 25.971 32.3408 19.1235Z" fill="#14171C" fill-opacity="0.4"/>
<circle opacity="0.7" cx="53" cy="62" r="2" fill="#262A31" fill-opacity="0.7"/>
<path d="M30.2387 51.675C31.5909 54.7025 35.3097 55.8198 37 56C29.0844 56 22.2426 51.5882 19 45.1875C24.6646 44.1063 28.5484 47.8906 30.2387 51.675Z" fill="#14171C" fill-opacity="0.4"/>
<defs>
<filter id="filter0_d_1700_12945" x="7" y="6" width="60" height="60" filterUnits="userSpaceOnUse" color-interpolation-filters="sRGB">
<feFlood flood-opacity="0" result="BackgroundImageFix"/>
<feColorMatrix in="SourceAlpha" type="matrix" values="0 0 0 0 0 0 0 0 0 0 0 0 0 0 0 0 0 0 127 0" result="hardAlpha"/>
<feOffset/>
<feGaussianBlur stdDeviation="5"/>
<feComposite in2="hardAlpha" operator="out"/>
<feColorMatrix type="matrix" values="0 0 0 0 0.00288194 0 0 0 0 0.132691 0 0 0 0 0.345833 0 0 0 0.56 0"/>
<feBlend mode="normal" in2="BackgroundImageFix" result="effect1_dropShadow_1700_12945"/>
<feBlend mode="normal" in="SourceGraphic" in2="effect1_dropShadow_1700_12945" result="shape"/>
</filter>
</defs>
</svg>
