<svg width="140" height="140" viewBox="0 0 140 140" fill="none" xmlns="http://www.w3.org/2000/svg">
<circle opacity="0.4" cx="70.5" cy="72.5" r="42.5" fill="#1C64F2"/>
<path opacity="0.6" d="M116.602 83.1731C116.674 83.2065 116.74 83.2384 116.801 83.2687C116.745 83.2746 116.684 83.2799 116.618 83.2843C116.043 83.3228 115.164 83.2968 113.997 83.2052C111.669 83.0226 108.265 82.5853 104.03 81.9299C95.5633 80.6197 83.8105 78.4432 70.7799 75.7109C57.7492 72.9786 45.9158 70.2094 37.3189 67.9417C33.0187 66.8074 29.5374 65.8009 27.1238 64.9893C25.9138 64.5824 24.9902 64.2304 24.3715 63.9418C24.2998 63.9083 24.2337 63.8764 24.173 63.8461C24.2288 63.8402 24.2898 63.835 24.3563 63.8305C24.9306 63.792 25.8099 63.8181 26.977 63.9096C29.305 64.0922 32.7088 64.5295 36.9439 65.1849C45.4106 66.4952 57.1634 68.6716 70.194 71.4039C83.2247 74.1363 95.0581 76.9055 103.655 79.1732C107.955 80.3075 111.437 81.3139 113.85 82.1255C115.06 82.5324 115.984 82.8844 116.602 83.1731Z" stroke="#1C64F2"/>
<path opacity="0.6" d="M119.138 83.6309C119.138 83.631 119.137 83.6327 119.134 83.6359C119.136 83.6324 119.138 83.6308 119.138 83.6309ZM118.422 83.4117C118.653 83.531 118.829 83.6343 118.956 83.7201C118.845 83.7559 118.688 83.7894 118.477 83.8159C117.882 83.8906 116.968 83.8979 115.749 83.8354C113.319 83.7106 109.758 83.3125 105.323 82.6759C96.4564 81.4031 84.1372 79.183 70.4683 76.3169C56.7995 73.4507 44.3786 70.4832 35.348 68.0032C30.8306 66.7627 27.1725 65.6471 24.6341 64.73C23.3613 64.2701 22.391 63.8675 21.7409 63.5319C21.5097 63.4126 21.3341 63.3094 21.2064 63.2235C21.3175 63.1877 21.4746 63.1542 21.6859 63.1277C22.2802 63.0531 23.1948 63.0457 24.4135 63.1083C26.8441 63.233 30.4046 63.6311 34.8399 64.2678C43.7063 65.5406 56.0255 67.7606 69.6943 70.6268C83.3632 73.4929 95.7841 76.4605 104.815 78.9404C109.332 80.1809 112.99 81.2965 115.529 82.2136C116.801 82.6735 117.772 83.0761 118.422 83.4117ZM20.9889 63.0506C20.9892 63.0506 20.9915 63.053 20.995 63.0578C20.9904 63.0529 20.9886 63.0505 20.9889 63.0506ZM21.0246 63.3127C21.0243 63.3126 21.0255 63.3109 21.029 63.3077C21.0266 63.3112 21.0248 63.3128 21.0246 63.3127ZM119.168 83.8858C119.172 83.8907 119.174 83.8931 119.174 83.8931C119.174 83.893 119.171 83.8906 119.168 83.8858Z" stroke="#1C64F2"/>
<path opacity="0.6" d="M121.3 84.1461C121.3 84.1461 121.299 84.1471 121.298 84.1488C121.299 84.147 121.3 84.1461 121.3 84.1461ZM121.219 84.1769C121.228 84.1844 121.236 84.1916 121.243 84.1982C121.237 84.2022 121.231 84.2063 121.224 84.2106C121.114 84.2785 120.917 84.3475 120.607 84.4032C119.991 84.5137 119.041 84.5542 117.77 84.5204C115.236 84.4532 111.519 84.094 106.883 83.4758C97.617 82.2401 84.7311 79.9762 70.4239 76.9762C56.1168 73.9762 43.1082 70.8105 33.6438 68.1186C28.9091 66.772 25.0739 65.5475 22.4103 64.525C21.0747 64.0122 20.057 63.5591 19.3744 63.1764C19.0302 62.9834 18.8019 62.8252 18.667 62.706C18.6584 62.6985 18.6506 62.6914 18.6433 62.6847C18.6491 62.6807 18.6555 62.6766 18.6624 62.6723C18.7719 62.6044 18.9693 62.5354 19.2797 62.4797C19.8951 62.3692 20.8457 62.3288 22.1162 62.3625C24.6498 62.4298 28.3673 62.7889 33.0029 63.4071C42.2693 64.6428 55.1552 66.9068 69.4623 69.9067C83.7695 72.9067 96.778 76.0724 106.242 78.7643C110.977 80.1109 114.812 81.3354 117.476 82.3579C118.812 82.8707 119.829 83.3239 120.512 83.7065C120.856 83.8995 121.084 84.0577 121.219 84.1769ZM18.5687 62.605C18.5688 62.6051 18.5696 62.6062 18.5709 62.6085C18.5693 62.6062 18.5686 62.605 18.5687 62.605ZM18.5866 62.7368C18.5865 62.7368 18.5869 62.7359 18.588 62.7341C18.5873 62.736 18.5867 62.7368 18.5866 62.7368ZM121.315 84.2745C121.317 84.2768 121.318 84.2779 121.318 84.2779C121.317 84.2779 121.317 84.2767 121.315 84.2745Z" stroke="#1C64F2"/>
<path opacity="0.6" d="M123.197 84.5962C123.197 84.5962 123.197 84.5968 123.196 84.598L123.197 84.5962ZM123.069 84.4595C123.15 84.539 123.182 84.5862 123.194 84.6069C123.187 84.6237 123.166 84.6598 123.103 84.709C122.989 84.7968 122.787 84.8871 122.47 84.9654C121.84 85.1209 120.863 85.2045 119.553 85.21C116.94 85.2209 113.098 84.9219 108.301 84.3426C98.7133 83.1848 85.3661 80.9142 70.5345 77.8042C55.7029 74.6942 42.2079 71.3365 32.381 68.4233C27.4649 66.966 23.4811 65.624 20.7116 64.4845C19.3228 63.913 18.265 63.4028 17.5547 62.9662C17.1975 62.7467 16.9579 62.5637 16.8132 62.4217C16.7321 62.3422 16.7 62.2951 16.6883 62.2744C16.6949 62.2575 16.7157 62.2215 16.7793 62.1722C16.8927 62.0844 17.0951 61.9941 17.4118 61.9159C18.0416 61.7603 19.0186 61.6767 20.3289 61.6713C22.942 61.6603 26.7839 61.9593 31.5806 62.5386C41.1686 63.6964 54.5158 65.9671 69.3474 69.077C84.179 72.187 97.6741 75.5447 107.501 78.4579C112.417 79.9153 116.401 81.2572 119.17 82.3968C120.559 82.9682 121.617 83.4785 122.327 83.915C122.684 84.1345 122.924 84.3175 123.069 84.4595ZM16.6822 62.2618C16.6823 62.2618 16.6826 62.2625 16.683 62.2639L16.6822 62.2618ZM16.6854 62.285C16.6853 62.285 16.6854 62.2844 16.6856 62.2832L16.6854 62.285ZM123.199 84.6174C123.2 84.6187 123.2 84.6194 123.2 84.6194L123.199 84.6174Z" stroke="#1C64F2"/>
<g filter="url(#filter0_d_1700_12481)">
<circle cx="70.5" cy="72.5" r="31.5" fill="#1C64F2"/>
</g>
<path d="M89.112 66.9999C113.355 68.0266 80.8159 98.3578 71.1399 96.932C61.464 95.5062 65.5 66 89.112 66.9999Z" fill="#403BEB"/>
<circle opacity="0.7" cx="24.5" cy="41.5" r="9.5" fill="#1C64F2"/>
<defs>
<filter id="filter0_d_1700_12481" x="29" y="31" width="83" height="83" filterUnits="userSpaceOnUse" color-interpolation-filters="sRGB">
<feFlood flood-opacity="0" result="BackgroundImageFix"/>
<feColorMatrix in="SourceAlpha" type="matrix" values="0 0 0 0 0 0 0 0 0 0 0 0 0 0 0 0 0 0 127 0" result="hardAlpha"/>
<feOffset/>
<feGaussianBlur stdDeviation="5"/>
<feComposite in2="hardAlpha" operator="out"/>
<feColorMatrix type="matrix" values="0 0 0 0 0.00288194 0 0 0 0 0.132691 0 0 0 0 0.345833 0 0 0 0.56 0"/>
<feBlend mode="normal" in2="BackgroundImageFix" result="effect1_dropShadow_1700_12481"/>
<feBlend mode="normal" in="SourceGraphic" in2="effect1_dropShadow_1700_12481" result="shape"/>
</filter>
</defs>
</svg>
