<svg width="135" height="135" viewBox="0 0 135 135" fill="none" xmlns="http://www.w3.org/2000/svg">
<circle opacity="0.4" cx="67.5" cy="67.5" r="42.5" fill="#262A31" fill-opacity="0.7"/>
<circle opacity="0.6" cx="67.5" cy="67.5" r="51" stroke="#262A31" stroke-opacity="0.7"/>
<g filter="url(#filter0_d_1700_12978)">
<circle cx="67.5" cy="67.5" r="35.5" fill="#262A31" fill-opacity="0.7" shape-rendering="crispEdges"/>
</g>
<path d="M60.444 50C68.444 53.4998 57.4435 61 53.944 60.4998C50.4444 59.9997 47.6441 52 60.444 50Z" fill="#14171C" fill-opacity="0.4"/>
<path d="M39.5687 56.5404C37.306 50.8835 40.5115 44.7553 42.3972 42.3983C32.4632 52.3322 29.6474 66.6888 33.9498 79.1299C42.4729 73.4352 42.3972 63.6115 39.5687 56.5404Z" fill="#14171C" fill-opacity="0.4"/>
<path d="M92.6022 92.6017C106.466 78.7381 106.466 56.2607 92.6022 42.3971C85.531 36.0331 77.0459 45.9327 84.4705 68.2066C89.023 81.8639 73.5239 102.488 42.3976 92.6017C56.2612 106.465 78.7386 106.465 92.6022 92.6017Z" fill="#14171C" fill-opacity="0.4"/>
<circle opacity="0.7" cx="16.5" cy="103.5" r="9.5" fill="#262A31" fill-opacity="0.7"/>
<circle opacity="0.7" cx="18" cy="27" r="7" fill="#262A31" fill-opacity="0.7"/>
<circle opacity="0.7" cx="102" cy="22" r="3" fill="#262A31" fill-opacity="0.7"/>
<circle opacity="0.7" cx="119" cy="35" r="3" fill="#262A31" fill-opacity="0.7"/>
<defs>
<filter id="filter0_d_1700_12978" x="22" y="22" width="91" height="91" filterUnits="userSpaceOnUse" color-interpolation-filters="sRGB">
<feFlood flood-opacity="0" result="BackgroundImageFix"/>
<feColorMatrix in="SourceAlpha" type="matrix" values="0 0 0 0 0 0 0 0 0 0 0 0 0 0 0 0 0 0 127 0" result="hardAlpha"/>
<feOffset/>
<feGaussianBlur stdDeviation="5"/>
<feComposite in2="hardAlpha" operator="out"/>
<feColorMatrix type="matrix" values="0 0 0 0 0.00288194 0 0 0 0 0.132691 0 0 0 0 0.345833 0 0 0 0.56 0"/>
<feBlend mode="normal" in2="BackgroundImageFix" result="effect1_dropShadow_1700_12978"/>
<feBlend mode="normal" in="SourceGraphic" in2="effect1_dropShadow_1700_12978" result="shape"/>
</filter>
</defs>
</svg>
