<svg width="100" height="100" viewBox="0 0 100 100" fill="none" xmlns="http://www.w3.org/2000/svg">
<circle opacity="0.4" cx="50" cy="50" r="42" fill="#262A31" fill-opacity="0.7"/>
<path opacity="0.6" d="M99.1874 55.5536C98.51 61.5533 92.5709 66.5443 83.1507 69.6526C73.7755 72.746 61.1406 73.9008 47.4756 72.358C33.8106 70.8152 21.7512 66.8722 13.3017 61.7663C4.81173 56.6359 0.13502 50.4462 0.812415 44.4465C1.48981 38.4468 7.42888 33.4558 16.8491 30.3475C26.2243 27.2541 38.8592 26.0993 52.5242 27.6421C66.1892 29.185 78.2486 33.1279 86.6981 38.2338C95.1881 43.3642 99.8648 49.5539 99.1874 55.5536Z" stroke="#262A31" stroke-opacity="0.7"/>
<g filter="url(#filter0_d_1700_12917)">
<circle cx="50" cy="50" r="35" fill="#262A31" fill-opacity="0.7" shape-rendering="crispEdges"/>
</g>
<path d="M42.3534 68.4849C43.3224 77.163 31.3268 71.3864 30.0102 68.1056C28.6936 64.8248 34.2213 58.3998 42.3534 68.4849Z" fill="#14171C" fill-opacity="0.4"/>
<path d="M61.5201 22.8636C59.1161 17.3591 52.505 15.3277 49.5 15C63.5723 15 75.7353 23.0215 81.5 34.6591C71.4296 36.625 64.5252 29.7443 61.5201 22.8636Z" fill="#14171C" fill-opacity="0.4"/>
<defs>
<filter id="filter0_d_1700_12917" x="5" y="5" width="90" height="90" filterUnits="userSpaceOnUse" color-interpolation-filters="sRGB">
<feFlood flood-opacity="0" result="BackgroundImageFix"/>
<feColorMatrix in="SourceAlpha" type="matrix" values="0 0 0 0 0 0 0 0 0 0 0 0 0 0 0 0 0 0 127 0" result="hardAlpha"/>
<feOffset/>
<feGaussianBlur stdDeviation="5"/>
<feComposite in2="hardAlpha" operator="out"/>
<feColorMatrix type="matrix" values="0 0 0 0 0.00288194 0 0 0 0 0.132691 0 0 0 0 0.345833 0 0 0 0.56 0"/>
<feBlend mode="normal" in2="BackgroundImageFix" result="effect1_dropShadow_1700_12917"/>
<feBlend mode="normal" in="SourceGraphic" in2="effect1_dropShadow_1700_12917" result="shape"/>
</filter>
</defs>
</svg>
